<svg width="27" height="27" viewBox="0 0 27 27" fill="none" xmlns="http://www.w3.org/2000/svg">
<g clip-path="url(#clip0_12_216)">
<path d="M10.125 0.469308C10.2897 0.669467 10.3906 0.914424 10.4147 1.17253C10.4388 1.43063 10.3849 1.69002 10.26 1.91718C9.28439 3.70842 8.77489 5.71624 8.77838 7.75593C8.77838 14.5414 14.31 20.0359 21.1275 20.0359C22.0168 20.0359 22.8825 19.9431 23.7144 19.7659C23.9695 19.7106 24.2351 19.7318 24.4782 19.8266C24.7213 19.9214 24.9311 20.0858 25.0813 20.2991C25.2399 20.5209 25.3208 20.789 25.3113 21.0615C25.3019 21.334 25.2026 21.5958 25.029 21.8061C23.7055 23.4319 22.0358 24.7418 20.1417 25.6404C18.2476 26.539 16.1769 27.0035 14.0805 27.0002C6.30112 27.0002 0 20.7328 0 13.0108C0 7.19906 3.56738 2.21418 8.64675 0.101433C8.89977 -0.00550046 9.18066 -0.0274481 9.44721 0.0388872C9.71377 0.105223 9.95161 0.256259 10.125 0.469308Z" fill="white"/>
</g>
<defs>
<clipPath id="clip0_12_216">
<rect width="27" height="27" fill="white"/>
</clipPath>
</defs>
</svg>
