<svg width="36" height="36" viewBox="0 0 36 36" fill="none" xmlns="http://www.w3.org/2000/svg">
<path d="M7.4685 14.5275C4.4895 13.3365 3 12.741 3 12C3 11.259 4.4895 10.665 7.4685 9.4725L11.6805 7.788C14.6595 6.5955 16.1505 6 18 6C19.851 6 21.3405 6.5955 24.3195 7.788L28.5315 9.4725C31.5105 10.6635 33 11.259 33 12C33 12.741 31.5105 13.335 28.5315 14.5275L24.3195 16.212C21.3405 17.406 19.8495 18 18 18C16.149 18 14.6595 17.4045 11.6805 16.2135L7.47 14.526L7.4685 14.5275Z" fill="black"/>
<path fill-rule="evenodd" clip-rule="evenodd" d="M3 12C3 12.741 4.4895 13.335 7.4685 14.5275L11.6805 16.212C14.6595 17.406 16.1505 18 18 18C19.851 18 21.3405 17.4045 24.3195 16.2135L28.5315 14.5275C31.5105 13.3365 33 12.741 33 12C33 11.259 31.5105 10.665 28.5315 9.4725L24.3195 7.788C21.3405 6.5955 19.8495 6 18 6C16.149 6 14.6595 6.5955 11.6805 7.788L7.47 9.4725C4.4895 10.6635 3 11.259 3 12Z" fill="#404040"/>
<path d="M8.649 15L7.4685 15.4725C4.4895 16.6635 3 17.2605 3 18C3 18.7395 4.4895 19.335 7.4685 20.5275L11.6805 22.212C14.6595 23.406 16.1505 24 18 24C19.851 24 21.3405 23.4045 24.3195 22.2135L28.5315 20.5275C31.5105 19.3365 33 18.7395 33 18C33 17.2605 31.5105 16.665 28.5315 15.4725L27.351 15L24.3195 16.2135C21.3405 17.4045 19.8495 18 18 18C16.149 18 14.6595 17.4045 11.6805 16.2135L8.6505 15H8.649Z" fill="#686868"/>
<path opacity="0.4" d="M8.649 21L7.4685 21.4725C4.4895 22.6635 3 23.2605 3 24C3 24.741 4.4895 25.335 7.4685 26.5275L11.6805 28.212C14.6595 29.406 16.1505 30 18 30C19.851 30 21.3405 29.4045 24.3195 28.212L28.5315 26.5275C31.5105 25.3365 33 24.741 33 24C33 23.2605 31.5105 22.665 28.5315 21.4725L27.351 21L24.3195 22.2135C21.3405 23.4045 19.8495 24 18 24C16.149 24 14.6595 23.4045 11.6805 22.2135L8.6505 21H8.649Z" fill="#404040"/>
</svg>
