<?xml version="1.0" encoding="utf-8"?>
<!-- Generator: Adobe Illustrator 25.0.0, SVG Export Plug-In . SVG Version: 6.00 Build 0)  -->
<svg version="1.1" xmlns="http://www.w3.org/2000/svg" xmlns:xlink="http://www.w3.org/1999/xlink" x="0px" y="0px"
	 viewBox="0 0 750 500" style="enable-background:new 0 0 750 500;" xml:space="preserve">
<style type="text/css">
	.st0{fill:#F6D0BB;}
	.st1{fill:#FFFFFF;}
	.st2{fill:#FC9401;}
	.st3{fill:#CD4E2B;}
	.st4{fill:#BC854D;}
	.st5{fill:#506963;}
	.st6{clip-path:url(#SVGID_2_);fill:#573A3C;}
	.st7{clip-path:url(#SVGID_2_);fill:#678B9B;}
	.st8{clip-path:url(#SVGID_2_);fill:#FC9401;}
	.st9{clip-path:url(#SVGID_2_);fill:none;stroke:#000000;stroke-miterlimit:10;}
	.st10{clip-path:url(#SVGID_2_);fill:#506963;}
	.st11{clip-path:url(#SVGID_2_);}
	.st12{clip-path:url(#SVGID_4_);}
	.st13{clip-path:url(#SVGID_2_);fill:#FFFFFF;}
	.st14{fill:#678B9B;}
	.st15{fill:#573A3C;}
</style>
<g id="BACKGROUND">
	<rect class="st0" width="750" height="500"/>
</g>
<g id="OBJECTS">
	<path class="st1" d="M507.75,255.04c-10.74-12.98-30.25-3.51-32.69,11.31c-1.22,7.39,1.74,15.58,9.05,18.53
		c1.48,0.6,3.09,0.96,4.72,1.06c1.93,0.62,4.12,0.84,6.57,0.55C509,284.88,516.44,265.55,507.75,255.04z"/>
	<g>
		<g>
			<g>
				<g>
					<polygon class="st2" points="153.79,412.62 153.79,427.38 170.07,432.94 183.55,420.46 179.62,407.91 					"/>
				</g>
				<g>
					<polygon class="st2" points="223.62,421.26 223.62,431.38 232.4,441 243.63,430.49 233.63,420.42 					"/>
				</g>
				<g>
					<polygon class="st2" points="205.45,398.12 199.27,410.87 205.45,417.99 221.17,407.18 					"/>
				</g>
				<g>
					<polygon class="st2" points="221.17,381.58 221.17,394.26 238.58,400.92 249.25,389.93 246.51,376 235.21,376 226.23,376 
						223.62,378.71 					"/>
				</g>
			</g>
		</g>
		<g>
			<polygon class="st3" points="682.1,342.84 694.5,350.84 708,340.17 704.82,322.08 692.14,318.58 			"/>
			<polygon class="st3" points="712.22,343.85 720.72,349.34 733.57,347.18 730.83,332.04 716.95,334.99 			"/>
			<polygon class="st3" points="697.56,381.39 708.21,388.27 723.25,377.25 719.8,362.33 706.61,357.08 700.48,366.57 
				695.61,374.12 696.47,377.77 			"/>
		</g>
	</g>
	<g>
		<path class="st2" d="M191.42,106.62c-8.64,8.22-15,19.37-15.44,31.29c-0.53,14.2,7.24,27.51,16.91,37.92
			c6.63,7.14,14.56,13.49,23.95,16.07c13.47,3.69,28.46-1.22,38.55-10.87c10.09-9.65,15.58-23.45,16.94-37.34
			c1.53-15.6-2.21-32.2-12.59-43.94C238.74,76.02,210.85,88.13,191.42,106.62z"/>
		<path class="st3" d="M680.18,128.97c7.35,7.55,14.3,15.86,17.81,25.79c3.51,9.93,3.01,21.82-3.56,30.04
			c-8.24,10.31-23.86,12.15-36.29,7.71c-12.43-4.44-22.36-13.85-31.62-23.26c-13.54,13.96-8.58,36.77-12.78,55.76
			c-0.94,4.26-2.55,8.65-5.99,11.34c-8.1,6.33-20.18-0.73-25.54-9.5s-7.97-19.62-15.9-26.17c-4.87,18.92-28.34,29.61-46.72,23
			c-18.38-6.61-29.61-27.43-27.59-46.87c2.02-19.43,15.68-36.56,33.07-45.47c-10.36-0.35-20.97-2.1-29.8-7.53
			c-8.83-5.43-15.56-15.12-15.19-25.47c0.36-10.13,7.15-18.87,14.53-25.81c27.73-26.06,80.04-42.3,116.17-24.13
			c12.55,6.31,18.43,17.95,25.59,29.4C648.71,97.53,664.06,112.41,680.18,128.97z"/>
		<path class="st4" d="M482.36,164.35c0.35-3.2,0.5-6.59-0.9-9.5c-2.3-4.78-8.02-6.78-13.25-7.67c-25.12-4.29-52.23,5.83-75.78-3.88
			c-8.48-3.5-15.81-9.36-24.28-12.87c-20.11-8.35-42.99-2.37-63.91,3.68c-10,13.72,3.57,33.84-2.44,49.71
			c-6.36,16.82-29.38,18.76-43.18,30.28c-16.19,13.52-16.94,39.44-6.9,57.99c10.04,18.54,28.23,31.12,46.44,41.75
			c25.08,14.63,52.74,27.2,81.78,26.6c32.87-0.68,66.82-22.15,72.18-55.7c3.06-19.18,3.45-37.47,9.81-56.15
			C469.18,207.29,479.88,187,482.36,164.35z"/>
		<path class="st3" d="M392.65,424.75c7.15-0.34,14.57-2.06,19.89-6.84c10.8-9.71,9.49-28.37,20.52-37.82
			c9.66-8.28,24.09-5.86,36.73-4.36c12.64,1.5,28.38-0.16,33.53-11.79c4.47-10.1-2.49-22.19-12.02-27.78
			c-9.53-5.59-20.94-6.61-31.79-8.71c-10.85-2.1-22.3-5.97-28.55-15.08c-3.84-5.58-5.21-12.43-7.44-18.83
			c-5.34-15.29-16.61-28.96-31.72-34.75c-23.36-8.95-49.64,2.22-70,16.77c-11.84,8.46-23.23,18.69-28.43,32.28
			c-6.81,17.77-1.63,38.35,8.82,54.25C320.48,389.91,357,426.42,392.65,424.75z"/>
		<path class="st1" d="M328.75,282.95c-21.72-27.41-65.06-32.43-97.11-25.99c-9.12,1.83-17.94,4.74-26.44,8.52
			c-1.04,0.46-0.14,1.99,0.89,1.53c27.44-12.23,59.39-14.35,87.97-4.73c12.21,4.11,24.08,10.67,32.46,20.64
			c9.9,11.77,12.69,27.33,12.35,42.33c-0.58,26.45-13.67,53.15-42.12,57.46c-26.96,4.09-51.1-12.5-61.83-36.62
			c-9.54-21.44-12.46-58.31,10.89-72.49c13.73-8.34,30.84-4.13,43.98,3.17c11.92,6.62,26.32,15.83,32.27,28.61
			c5.48,11.78,3.36,26.41-4.26,36.76c-8.3,11.27-22.84,16.49-36.52,15.25c-14.02-1.27-26.4-9.69-34.08-21.3
			c-6.47-9.78-11.97-25.1-5.54-36.21c4.77-8.24,14.93-8.82,23.46-8.85c7.36-0.03,15.07,0.8,21.76,4.09
			c13.76,6.77,17.85,25.66,6.23,36.58c-5.66,5.32-14.09,6.61-21.38,4.38c-7.63-2.33-16.08-10.07-14.02-18.89
			c1.8-7.71,11.37-12.55,18.73-10.09c5.22,1.75,11.58,9.12,6.78,14.52c-1.01,1.14-2.56,1.88-4.04,2.17
			c-1.17,0.25-2.33,0.22-3.48-0.11c-3.81-1.56-3.58-3.9,0.68-7.03c0.76,0.21,1.09-0.97,0.33-1.19c-3.51-0.99-6.15,2.87-5,6.13
			c1.47,4.17,7.02,4.32,10.32,2.52c4.61-2.51,4.95-8.04,2.4-12.24c-3.19-5.26-9.45-7.6-15.36-6.39
			c-13.4,2.74-16.59,17.53-6.99,26.58c9.25,8.72,25.48,8.69,33.77-1.32c8.42-10.17,6.89-25.89-3.59-33.94
			c-5.5-4.22-12.42-6.06-19.22-6.79c-7.56-0.82-16.54-1.06-23.76,1.71c-14.57,5.59-13.07,24.04-8.2,35.87
			c5.62,13.67,17.07,25.31,31.4,29.6c14.42,4.32,31.24,1.12,42.3-9.34c10.48-9.9,14.69-26.13,10.03-39.83
			c-2.65-7.79-8.19-13.93-14.45-19.09c-7.01-5.78-14.71-11.11-22.83-15.22c-14.29-7.23-32.86-9.96-46.19,0.86
			c-11.8,9.58-15.43,26.19-15.06,40.7c0.41,16.02,5.35,32.21,14.91,45.17c17.79,24.11,54.85,34.12,79.39,13.67
			c12.2-10.16,17.92-25.91,19.52-41.32C341.9,315.72,339.72,296.79,328.75,282.95z"/>
		<path class="st5" d="M534.91,354.25c2.84-39.26,27.06-73.3,40.25-110.38c5.11,23.44,16.91,44.93,22.95,68.15
			c6.75,25.97,6.1,53.2,5.39,80.02c-0.23,8.86-0.48,17.84-2.91,26.36c-2.76,9.69-11.01,30.73-20.76,35.48
			c-12.21,5.94-19.66-10.26-24.06-18.54C542.57,410.49,532.85,382.76,534.91,354.25z"/>
		<path class="st2" d="M662.9,464.24c-18.76-1.48-37.18-7.1-53.57-16.35c-8.58-4.84-16.76-10.82-22.34-18.95
			c-3.1-4.51-5.37-10.04-4.2-15.38c1.44-6.58,7.9-11.13,14.52-12.33c6.63-1.2,13.42,0.31,19.93,2.03
			c-9.74-4.58-18.48-11.67-23.92-20.95c-5.45-9.28-7.34-20.85-3.97-31.07c0.98-2.98,2.63-6.05,5.52-7.27
			c2.1-0.88,4.49-0.64,6.73-0.23c8.62,1.54,16.85,5.16,23.82,10.46c-10.54-9.84-19.27-22.06-22.94-36.01
			c-3.67-13.95-1.8-29.72,6.89-41.24c3.06-4.06,7.36-7.73,12.44-7.94c5.26-0.22,9.9,3.27,13.76,6.85
			c18.87,17.56,31.05,42.15,33.59,67.81c0.56-7.76,4.04-16.79,11.68-18.21c4.99-0.93,9.97,1.9,13.61,5.43
			c9.51,9.23,12.92,24.22,8.33,36.65c4.2-2.72,9.98-1.96,14.17,0.77c4.2,2.73,7.05,7.09,9.29,11.56c7.01,14.03,8.99,30.51,5.5,45.8
			c-1.77,7.76-4.99,15.31-10.21,21.31c-12.05,13.84-31.99,16.98-50.21,19.24"/>
		<path class="st5" d="M53.92,368.25c10.46,3.78,22.31,3.02,32.57-1.26c4.33-1.81,8.48-4.27,11.58-7.79
			c6.09-6.92,7.33-16.97,6.08-26.11c-1.03-7.52-3.74-15.13-9.3-20.3c-12.44-11.58-46.41-10.75-58.59,2.19
			C19.81,332.44,34.31,361.16,53.92,368.25z"/>
		<g>
			<path class="st3" d="M186.93,238.06c-2.13-5.2-4.31-10.37-6.48-15.55c-4.1-9.78-8.11-19.61-12.92-29.07
				c-9.02-17.73-21.55-34.66-39.72-43.77c-17.65-8.86-39.1-10.62-56.21,0.57c-8.74,5.72-15.48,13.56-21.55,21.95
				c-5.73,7.93-11.47,16.27-15.47,25.22c-2.72,6.08-4.66,12.12-5.43,18.75c-0.76,6.56,0.07,13.15,1.24,19.62
				c1.16,6.45,2.65,12.84,4.01,19.25c1.31,6.15,1.94,14.39,7.11,18.51c2.59,2.06,6.4,2.13,8.25-1.06c1.48-2.54,2.06-4.7,1.84-7.65
				c-0.2-2.76-0.64-5.58-1.05-8.32c-0.83-5.46-1.86-10.9-2.79-16.35c-1.54-9.01-3.1-18.17-0.49-27.13
				c2.38-8.17,7.31-15.58,12.07-22.69c4.66-6.96,8.68-12.84,14.63-18.69c5.76-5.66,11.36-8.9,19.35-10.54
				c0.19-0.04,0.34-0.07,0.48-0.1c0.07,0,0.2-0.01,0.4-0.03c0.8-0.08,1.6-0.13,2.4-0.17c1.94-0.08,3.85,0.03,5.78,0.15
				c0.31,0.02,0.53,0.03,0.7,0.03c0.16,0.04,0.38,0.08,0.69,0.14c0.96,0.18,1.92,0.36,2.87,0.58c2.24,0.51,4.45,1.18,6.61,1.96
				c2.32,0.84,5.47,2.38,8.54,4.23c4.11,2.47,5.97,3.91,9.2,6.94c6.39,6,10.59,11.69,15.05,19.17c5.05,8.47,9.13,17.46,13,26.51
				c1.69,3.95,3.88,9.24,5.87,13.98c1.28,3.06,2.57,6.13,3.87,9.18c0.49,1.15,0.98,2.29,1.47,3.44c0.18,0.41,0.35,0.83,0.53,1.24
				c-0.53,2.84,0.18,5.82,2.46,8.1c3.67,3.67,9.48,3.43,13.17,0C192.22,251.08,189.42,244.15,186.93,238.06z"/>
			<path class="st3" d="M148.52,233.21c-2.54-5.93-5.56-11.64-9.33-16.89c-7.41-10.32-16.9-18.91-28.66-23.98
				c-12.16-5.24-27.59-7.96-37.59,2.88c-9.11,9.87-11.71,24.9-9.78,37.82c1.14,7.58,4.18,14.81,7.57,21.64
				c3.29,6.61,7.59,14.91,14.02,18.94c2.37,1.48,4.78-0.52,5.05-2.9c0.67-5.85-1.93-12.59-4.17-17.89
				c-2.14-5.04-4.48-10.02-6.05-15.27c-2.86-9.57-2.53-20.66,2.71-29.09c2-3.22,4.24-5.16,8.26-5.11c4.31,0.05,9.04,1.62,12.74,3.37
				c8.52,4.03,15.94,10.3,21.46,18.03c3.52,4.92,6.54,10.3,8.86,15.89c2.29,5.54,3.37,11.6,5.87,17.02
				c1.26,2.72,5.78,4.72,8.64,3.52c0.15-0.06,0.31-0.13,0.46-0.19c3.32-1.4,6.18-4.01,6.06-7.96
				C154.44,246.35,151.11,239.27,148.52,233.21z"/>
			<path class="st3" d="M130.52,254.39c-4.45-8.13-17.41-20.63-27.54-14.28c-4.19,2.63-6.02,8.37-4.89,13.07
				c0.49,2.02,1.84,4.07,2.86,5.85c1.37,2.41,2.19,5.1,3.59,7.43c1.79,2.98,5.72,2.01,6.87-0.9c1.72-4.35-3.06-9.26-2.91-13.35
				c0.26,0.09,0.5,0.18,0.66,0.26c1.68,0.86,3.18,1.87,4.53,3.17c3.12,3,4.51,8.85,9.27,9.49c2.99,0.41,5.56-0.3,7.26-2.95
				c0.1-0.16,0.2-0.31,0.3-0.47C131.93,259.5,131.73,256.61,130.52,254.39z"/>
		</g>
	</g>
	<g>
		<defs>
			<rect id="SVGID_1_" width="750" height="500"/>
		</defs>
		<clipPath id="SVGID_2_">
			<use xlink:href="#SVGID_1_"  style="overflow:visible;"/>
		</clipPath>
		<path class="st6" d="M697.01,267.2c11.94,16.38,21.38,35.25,37.57,47.44c14.06,10.58,31.81,14.98,49.28,17.11
			c6.11,0.75,12.49,1.32,17.77,4.51c10.57,6.38,12.86,20.34,18.27,31.44c7.18,14.72,21.59,25.69,37.68,28.69
			c11.97,2.23,25.2,0.49,35.54,6.93c10.31,6.43,14.55,18.99,19.51,30.09c8.84,19.79,25.1,39.22,46.75,40.31
			c18.15-12.23,23.69-36.8,21.97-58.63c-1.72-21.82-9.08-42.93-10.46-64.78c-1.52-24.14,4.31-48.12,5.48-72.28
			s-3.45-50.63-21.4-66.84c-22.14-19.99-56.64-17.62-84.87-7.98c-28.24,9.63-54.87,25.32-84.53,28.56
			c-40.83,4.45-79.93-15.27-120.68-11.64c-18.02,1.6-23.73,9.19-7.56,17.26C673.72,245.56,685.68,251.65,697.01,267.2z"/>
		<path class="st7" d="M103.86,520.3c15.89,7.97,30.24,21.47,48.02,21.74c30.41,0.46,53.21-38.11,83.05-32.24
			c18.72,3.68,31.6,24.28,50.66,25.05c13.06,0.52,24.67-8.89,31.65-19.94c3.33-5.27,5.98-11.3,5.58-17.52
			c-0.52-8.14-6.15-15.12-12.64-20.07c-15.17-11.56-34.92-14.55-53.47-18.98c-18.55-4.42-38.2-11.8-48-28.16
			c-12.55-20.97-4.26-48.19-10.43-71.84c-4.82-18.47-19.18-34.26-37.23-40.44c-18.06-6.18-39.28-2.39-53.84,9.96
			c-22.73,19.29-30.5,57.34-59.52,64.13c-20.55,4.81-40.3-9.49-61.03-13.43c-18.03-3.42-37.98,1.85-50.52,15.24
			c-12.55,13.4-16.28,34.97-7.22,50.93c14.26,25.11,52.81,30.31,63.08,57.29c4.39,11.53,3.77,28.2,19.52,29.56
			c10.45,0.9,14.01-7.39,22.05-11.99C54.15,507.85,83.22,509.96,103.86,520.3z"/>
		<path class="st6" d="M600.94-47.97c9.41,7.52,16.47,21.89,8.78,31.16c-2.69,3.25-6.69,5.11-10.66,6.55
			c-31.58,11.5-66.74,2.56-100.1,6.63c-9.47,1.16-19.06,3.49-26.86,8.98c-7.8,5.49-13.52,14.66-12.83,24.17
			c1,13.86,14.78,26.61,9.69,39.54c-2.16,5.5-7.38,9.24-12.8,11.62c-14.95,6.58-33.03,4.71-47-3.76
			c-13.97-8.47-23.79-23.06-27.63-38.94c-3.09-12.78-2.01-27.54,6.86-37.25c6.16-6.74,15.09-10.09,22.65-15.2
			c7.56-5.12,14.29-13.81,12.06-22.67c-1.32-5.23-5.47-9.21-9.68-12.58c-14.8-11.82-32.75-19.87-45.28-34.07
			c-12.53-14.2-17.26-38.42-3.13-51.03c5.19-4.63,12.07-6.91,18.9-8.2c20.77-3.9,42.6,1.61,60.04,13.26
			c16.55,11.05,23.06,29.57,38.08,41.24C516.45-61.77,566.96-75.1,600.94-47.97z"/>
		<path class="st8" d="M466.82,419.78c25.93,2.28,49.89,20.11,59.53,44.29c9.64,24.18,4.52,53.6-12.73,73.1
			c-18.63,21.06-48.99,29.27-76.88,25.66c-8.98-1.16-18.07-3.55-25.31-8.97c-24.43-18.28-20.15-62.83-14.68-89.06
			C403,434.74,437.58,417.2,466.82,419.78z"/>
		<path class="st8" d="M738.24-160.16c14.48-1.32,29.68-0.96,42.67,5.55c13,6.51,23.11,20.54,21.14,34.95
			c-2.52,18.51-21.94,29.06-33.17,43.99c-8.92,11.87-12.73,27.45-10.29,42.1c1.29,7.75,4.39,15.39,9.93,20.97
			C783.8,2.74,811.39-2.27,827.8,11.86c10.6,9.13,13.9,24.06,15.06,37.99c2.1,25.2-1.89,53.04-20.22,70.46
			c-19.81,18.83-50.2,20.12-77.46,18.07c-17.17-1.29-34.78-3.64-49.76-12.12c-16.5-9.35-28.26-25.33-37.12-42.09
			c-27.23-51.5-24.03-103.32-15.64-158.87C650.31-125.43,687.68-155.55,738.24-160.16z"/>
		<path class="st9" d="M473.64,384.8c-29.96,3.21-56.29,33.1-85.14,24.42c-18.48-5.55-30-25.62-48.69-30.41
			c-5.03-1.29-11.15-1.03-14.43,3c-4.93,6.05-0.05,14.77,1.2,22.47c1.93,11.88-5.84,23.53-15.77,30.33s-21.82,9.93-33.14,14.01
			c-17.99,6.49-35.01,15.65-50.34,27.09c-8.36,6.24-16.44,13.43-20.96,22.83c-4.52,9.4-4.79,21.47,1.72,29.63
			c8.72,10.92,25.13,10.94,38.96,8.92c26.27-3.83,51.98-11.45,76.09-22.56c10.09-4.65,20.26-10.01,31.35-10.67
			c11.09-0.66,23.52,4.99,26.51,15.69c1.17,4.16,0.8,8.59,1.31,12.88c1.12,9.43,6.89,18.37,15.4,22.6
			c8.51,4.23,19.54,3.26,26.73-2.95c12.46-10.76,9.65-30.28,12.78-46.44c3.42-17.62,16.44-32.15,32.32-39.87
			c14.49-7.05,35.76-5.1,48.34-15.53C550.23,423.43,503.53,381.6,473.64,384.8z"/>
		<path class="st10" d="M631.97,58.02c-1.2-2.83-7.86-7.27-9.83-8.39c-3.73-2.13-7.78-3.85-11.92-5.11
			c-9.12-2.79-18.54-3.49-27.4-3.07c6.56,6.28,15.07,11.47,24.22,14.77c5.36,1.93,12.12,3.78,18.05,4.18
			c-5.07,1.7-10.18,3.31-15.31,4.81c-5.95,1.74-11.94,3.36-17.97,4.86c0.07-2.7-7.84-7.99-10.01-9.23
			c-3.73-2.13-7.78-3.85-11.92-5.11c-9.12-2.79-18.54-3.49-27.4-3.07c6.56,6.28,15.07,11.47,24.22,14.77
			c5.5,1.98,12.47,3.88,18.5,4.22c-6.02,1.39-12.08,2.65-18.15,3.76c-0.54-0.7-1.44-1.33-2.76-1.88
			c-9.15-3.77-21.71-3.18-31.21-1.44c-12.86,2.35-25.02,8.42-34.64,17.28c12.09,4.36,25.05,6.9,37.82,5.47
			c5.79-0.65,11.51-2.15,16.83-4.54c2.98-1.34,13.66-7.44,14.58-12.33c5.18-0.85,10.35-1.8,15.48-2.85
			c-4.42,2.68-8.81,6.25-12.27,9.5c-7.1,6.66-12.85,14.79-16.39,23.16c8.3-3.12,16.67-7.49,23.95-13.67c3.3-2.8,6.34-5.98,8.92-9.41
			c1.38-1.83,5.86-8.73,5.7-11.74c9.47-2.19,18.85-4.71,28.12-7.58c-3.61,2.44-7.1,5.34-9.96,8.02
			c-7.1,6.66-12.85,14.79-16.39,23.16c8.3-3.12,16.67-7.49,23.95-13.67c3.3-2.8,6.34-5.98,8.92-9.41c1.44-1.91,6.23-9.31,5.65-12.09
			c11.69-4.03,23.19-8.6,34.46-13.69c-3.74,2.94-7.32,6.52-10.17,9.76c-6.43,7.31-11.38,15.95-14.11,24.62
			c7.97-3.9,15.88-9.05,22.53-15.89c3.02-3.1,5.74-6.56,7.98-10.22c1.35-2.21,6.01-11.22,4.15-13.14
			c13.03-6.34,25.73-13.39,38.05-21.13c-2.87,3.9-5.4,8.41-7.3,12.38c-4.21,8.78-6.63,18.44-6.9,27.52
			c6.61-5.92,12.83-13.02,17.38-21.41c2.06-3.81,3.74-7.87,4.91-12.01c0.59-2.09,2.12-9.42,1.23-12.52
			c6.67-4.45,13.22-9.08,19.6-13.93c6.38-4.85,13.59-9.73,18.71-15.94c0.98-1.19-0.63-3.16-1.98-2.35
			c-6.1,3.63-11.4,8.75-17.02,13.08c-5.69,4.38-11.49,8.63-17.4,12.71c-1.53,1.06-3.07,2.1-4.62,3.14
			c-1.91-2.28-10.06-4.09-12.35-4.43c-4.25-0.63-8.65-0.77-12.96-0.45c-9.52,0.7-18.55,3.46-26.65,7.06
			c8.39,3.48,18.2,5.24,27.93,5.01c4.95-0.12,10.88-0.68,16.06-1.99c-8.16,5.19-16.5,10.09-25.02,14.68
			c-4.51,2.43-9.07,4.77-13.66,7.04c-2.25-2.59-8.12-5.72-9.97-6.55c-3.92-1.76-8.11-3.08-12.36-3.95
			c-9.35-1.91-18.79-1.7-27.57-0.44c7.13,5.63,16.1,9.98,25.52,12.39c4.87,1.25,10.81,2.32,16.22,2.45
			C656.26,48.7,644.22,53.66,631.97,58.02z"/>
		<g class="st11">
			<g>
				<path d="M-101.94,410.3c11.1,10.75,23.37,20.21,36.61,28.19c12.38,7.46,25.69,14.18,39.97,17.04c12.7,2.54,26.4,1.77,37.3-5.85
					c9.68-6.77,15.6-17.35,22.21-26.84c9.12-13.09,21.28-23.76,38.4-21.58c18.55,2.36,29.12,18.5,29.64,36.17
					c0.39,13.1-2.24,27.64,5.32,39.34c6.15,9.52,17.07,11.45,27.63,11c13.36-0.56,31-5.21,41.26,6.24
					c13.86,15.47,1.45,35.94-12.45,45.81c-0.76,0.54-0.07,1.79,0.75,1.28c10.53-6.73,19.42-17.71,19.39-30.77
					c-0.03-11.58-7.02-21.7-18.39-24.58c-11.95-3.03-24.37,0.8-36.46,0.23c-7.56-0.36-14.77-2.81-19.41-9.1
					c-4.58-6.22-5.83-14.28-6.01-21.82c-0.36-15.36,2-30.82-8.75-43.43c-8.74-10.25-22.67-14.62-35.74-11.34
					c-28.61,7.17-31.5,45.5-59.8,53.35c-18.07,5.01-37.52-2.26-53.45-10.54c-17.23-8.95-33.01-20.37-47.19-33.62
					C-101.66,408.94-102.49,409.76-101.94,410.3L-101.94,410.3z"/>
			</g>
		</g>
		<g class="st11">
			<path class="st5" d="M131.22,112.43c11.05-7.29,18.54-18.78,28.21-27.82c24.18-22.6,59.65-27.99,92.74-28.28
				c18.95-0.17,38.64,1.18,55.29,10.24c12.65,6.89,22.61,17.73,34.01,26.53c3.23,2.49,6.97,4.93,11.02,4.55
				c3.16-0.3,5.91-2.28,8.19-4.48c16.82-16.22,14.3-45.57-0.17-63.92c-14.47-18.35-37.51-27.69-60.15-33.44
				c-53.73-13.65-111.33-10.61-163.7,7.32C106.63,13.43,4.84,55.25,45.58,99.23C65.39,120.61,106.34,128.83,131.22,112.43z"/>
			<g>
				<defs>
					<path id="SVGID_3_" d="M131.22,112.43c11.05-7.29,18.54-18.78,28.21-27.82c24.18-22.6,59.65-27.99,92.74-28.28
						c18.95-0.17,38.64,1.18,55.29,10.24c12.65,6.89,22.61,17.73,34.01,26.53c3.23,2.49,6.97,4.93,11.02,4.55
						c3.16-0.3,5.91-2.28,8.19-4.48c16.82-16.22,14.3-45.57-0.17-63.92c-14.47-18.35-37.51-27.69-60.15-33.44
						c-53.73-13.65-111.33-10.61-163.7,7.32C106.63,13.43,4.84,55.25,45.58,99.23C65.39,120.61,106.34,128.83,131.22,112.43z"/>
				</defs>
				<clipPath id="SVGID_4_">
					<use xlink:href="#SVGID_3_"  style="overflow:visible;"/>
				</clipPath>
				<g class="st12">
					<g>
						<path class="st1" d="M342.34,103.65c4.22-28.72,12.33-56.66,24.31-83.11c0.12-0.27,0.09-0.62-0.2-0.77
							c-4.93-2.65-8.59,4.1-10.75,7.51c-4.69,7.42-8.44,15.4-11.51,23.62c-6.49,17.37-9.92,35.68-13.29,53.85
							c0.38,0.05,0.76,0.1,1.14,0.15c-0.61-33.54,9.2-65.79,19.07-97.49c0.2-0.65-0.68-0.93-1.04-0.44
							c-18.37,25.72-25.23,56.95-31.64,87.34c0.38,0.05,0.76,0.1,1.15,0.15c-1.7-32.54,9.96-63.37,21.54-93.19
							c0.1-0.25-0.07-0.51-0.26-0.65c-7.72-5.54-17.78,31.93-19.26,36.76c-5.79,18.91-9.73,38.33-11.93,57.98c0.39,0,0.78,0,1.18,0
							c-3.47-35.66,6.99-70.32,17.41-103.99c0.2-0.65-0.74-1.03-1.08-0.46c-17.18,28.92-22.39,62.52-27.18,95.29
							c0.41,0,0.81,0,1.22,0c-9.94-35.33,8.07-69.72,14-104.03c0.12-0.67-0.75-1.11-1.13-0.48c-19.12,31.41-28.05,68.22-25.43,104.9
							c0.4-0.05,0.81-0.11,1.21-0.16c-6.27-35.84,2.52-71.68,11.34-106.29c0.17-0.66-0.76-1.07-1.1-0.46
							c-16.96,29.4-25.05,63.13-23.18,97.02c0.44,0,0.88,0,1.31,0c-2.68-35.39,8.78-69.51,22.8-101.49c0.34-0.77-0.8-1.45-1.14-0.67
							c-14.12,32.19-25.67,66.53-22.97,102.15c0.06,0.83,1.36,0.85,1.31,0c-1.92-33.65,6.03-67.24,22.91-96.42
							c-0.37-0.15-0.74-0.31-1.1-0.46c-8.93,34.85-17.69,70.86-11.37,106.94c0.12,0.68,1.26,0.53,1.21-0.16
							c-2.61-36.49,6.23-73.03,25.26-104.27c-0.38-0.16-0.75-0.32-1.13-0.48c-5.98,34.55-24.03,69.1-14.03,104.69
							c0.16,0.55,1.12,0.65,1.22,0c4.77-32.67,9.87-66.17,26.98-95.03c-0.36-0.15-0.72-0.3-1.08-0.46
							c-10.46,33.77-20.93,68.54-17.45,104.3c0.07,0.76,1.09,0.75,1.18,0c1.84-16.48,4.9-32.8,9.29-48.8
							c2.12-7.72,4.53-15.36,7.23-22.9c1.25-3.48,2.56-6.93,3.93-10.37c0.89-2.24,1.78-4.49,2.76-6.69
							c0.61-1.37,4.89-7.23,4.94-3.04c0.02,1.52-1.46,3.78-2.01,5.22c-0.78,2.04-1.56,4.07-2.32,6.12
							c-1.32,3.51-2.6,7.02-3.84,10.56c-2.68,7.63-5.15,15.35-7.18,23.18c-3.88,14.99-6.04,30.32-5.23,45.83
							c0.03,0.62,1,0.83,1.15,0.15c6.38-30.3,13.19-61.43,31.49-87.08c-0.35-0.15-0.69-0.29-1.04-0.44
							c-9.88,31.79-19.74,64.15-19.13,97.79c0.01,0.63,1.02,0.82,1.14,0.15c2.59-14.02,5.23-28.07,9.26-41.76
							c4.01-13.6,9.33-28.1,18.1-39.43c1.11-1.44,5.17-4.91,5.16-1.36c0,1.46-1.63,3.72-2.21,5.1c-1.34,3.17-2.63,6.36-3.87,9.58
							c-2.65,6.92-5.05,13.93-7.19,21.02c-4.46,14.79-7.74,29.89-9.91,45.18C341.26,104.01,342.24,104.29,342.34,103.65
							L342.34,103.65z"/>
					</g>
				</g>
			</g>
		</g>
		<path class="st13" d="M103.5,407.9c3.08,0.1,9.91-4.08,11.75-5.39c3.5-2.49,6.76-5.44,9.65-8.66c6.37-7.1,10.96-15.35,14.31-23.57
			c-8.46,3.31-16.74,8.85-23.59,15.76c-4.01,4.05-8.53,9.41-11.39,14.61c0.59-5.32,1.28-10.63,2.08-15.92
			c0.93-6.13,1.97-12.25,3.15-18.34c2.42,1.2,10.55-3.75,12.58-5.2c3.5-2.49,6.76-5.44,9.65-8.66c6.37-7.1,10.96-15.35,14.31-23.57
			c-8.46,3.31-16.74,8.85-23.59,15.76c-4.11,4.15-8.77,9.68-11.61,15.01c1.27-6.05,2.67-12.07,4.22-18.05
			c0.86-0.2,1.81-0.74,2.87-1.72c7.27-6.72,12.01-18.36,14.44-27.71c3.28-12.66,2.89-26.24-1.1-38.69
			c-9.04,9.13-16.79,19.82-20.87,32c-1.85,5.53-2.89,11.35-2.96,17.18c-0.04,3.27,1,15.52,5.05,18.41
			c-1.41,5.06-2.72,10.14-3.93,15.25c-0.57-5.14-1.97-10.62-3.46-15.13c-3.05-9.24-8.01-17.88-14.11-24.61
			c-0.66,8.85-0.22,18.28,2.32,27.47c1.15,4.17,2.76,8.27,4.79,12.06c1.08,2.02,5.46,8.99,8.25,10.11c-2,9.51-3.66,19.09-4.95,28.7
			c-0.69-4.3-1.86-8.69-3.09-12.41c-3.05-9.24-8.01-17.88-14.11-24.61c-0.66,8.85-0.22,18.28,2.32,27.47
			c1.15,4.17,2.76,8.27,4.79,12.06c1.13,2.11,5.82,9.56,8.59,10.21c-1.26,12.3-1.96,24.65-2.08,37.02
			c-1.1-4.63-2.84-9.38-4.58-13.33c-3.92-8.91-9.68-17.04-16.4-23.15c0.19,8.87,1.53,18.22,4.94,27.13
			c1.55,4.04,3.54,7.97,5.92,11.54c1.44,2.16,7.65,10.17,10.18,9.29c0.27,14.49,1.32,28.98,3.16,43.41
			c-2.33-4.24-5.36-8.44-8.16-11.83c-6.19-7.51-13.94-13.77-22.06-17.84c2.59,8.49,6.41,17.12,12.11,24.77
			c2.59,3.47,5.57,6.71,8.83,9.51c1.65,1.42,7.65,5.89,10.84,6.39c1.23,7.92,2.68,15.81,4.4,23.64c1.72,7.83,3.11,16.42,6.59,23.68
			c0.66,1.39,3.13,0.76,2.97-0.8c-0.73-7.06-3.15-14.02-4.71-20.95c-1.58-7.01-2.99-14.05-4.21-21.13
			c-0.32-1.83-0.62-3.67-0.91-5.51c2.87-0.77,7.94-7.4,9.21-9.34c2.36-3.59,4.33-7.52,5.86-11.57c3.37-8.93,4.66-18.28,4.81-27.15
			c-6.69,6.15-12.41,14.31-16.29,23.23c-1.98,4.54-3.96,10.15-4.95,15.41c-1.28-9.59-2.21-19.22-2.79-28.87
			c-0.31-5.11-0.52-10.23-0.64-15.36c3.29-0.95,8.6-4.96,10.13-6.29c3.25-2.81,6.21-6.06,8.78-9.55
			c5.66-7.68,9.45-16.33,11.99-24.83c-8.11,4.1-15.82,10.4-21.98,17.94c-3.18,3.89-6.65,8.83-9.04,13.68
			C101.73,433.86,102.3,420.85,103.5,407.9z"/>
	</g>
	<g>
		<g>
			<path class="st4" d="M40.21,121.79c-0.11-2.37-0.58-4.72-1.91-6.72c-0.58-0.87-1.28-1.63-2.06-2.29
				c-0.34-0.48-0.68-0.97-1.05-1.44c-1.17-1.49-3.64-1.89-5.36-1.42c-0.49,0.14-0.93,0.33-1.32,0.56c-1.64,0.46-3.22,1.77-3.52,3.45
				c-1.04,5.75,2.47,11.76,6.5,15.65c3.22,3.12,9.45,1,9.22-3.82C40.65,124.39,40.48,123.07,40.21,121.79z"/>
			<path class="st4" d="M52.26,120.13c-1.63-1.92-5.03-1.29-6.17,0.8c-1.38,2.52-1.92,6.63,1.17,8.2c0.19,0.1,0.38,0.17,0.56,0.24
				c0.51,1.25,1.43,2.4,2.52,3.23c1.86,1.42,4.27-0.21,4.92-2C56.54,127.05,54.53,122.81,52.26,120.13z"/>
			<path class="st4" d="M49.52,150.17c-0.27-1.22-0.72-2.38-1.27-3.51c-0.05-0.1-0.1-0.2-0.15-0.31c-0.05-0.89-0.47-1.7-1.13-2.2
				c-0.02-0.06-0.04-0.11-0.07-0.17c-0.72-1.7-3.53-2.82-5.25-2.14c-1.86,0.74-3.55,1.78-4.12,3.85c-0.4,1.45-0.22,2.94,0.51,4.2
				c0.15,0.35,0.32,0.69,0.55,0.99c0.7,0.91,1.89,1.7,3.08,1.65c0.33,0.55,0.73,1.06,1.22,1.48c1.3,1.11,3.25,1.62,4.8,0.62
				C49.24,153.65,49.91,151.95,49.52,150.17z"/>
			<path class="st4" d="M23.17,181.91c-0.13-0.31-1.6-3.16-1.84-2.94c-0.09-0.11-0.12-0.14-0.11-0.12c0,0,0,0,0,0
				c-0.71-0.96-1.29-1.47-2.29-2.15c-1.97-1.34-4.54-0.61-6.18,0.8c-1.07,0.92-1.77,2.18-2.19,3.52c-0.58,1.84-0.14,3.35,0.67,4.99
				c0.72,1.44,1.98,2.18,3.34,2.34c0.75,1.03,1.82,1.83,2.93,2.46c2.37,1.35,5.06,0.04,5.9-2.4
				C24.13,186.3,24.03,183.95,23.17,181.91z"/>
			<path class="st4" d="M22.16,154.46c-0.07-0.53-0.23-1.06-0.51-1.66c-0.16-0.35-0.48-1.19,0.1,0.3c-0.81-2.08-2.18-3.58-4.5-3.9
				c-3.04-0.41-6.27,1.78-6.73,4.91c-0.22,1.47-0.25,2.76,0.54,4.1c0.65,1.1,1.91,2.16,3.18,2.45c0.09,0.02,0.18,0.02,0.26,0.04
				c0.36,0.55,0.74,1.05,1.11,1.5c1.58,1.92,5.1,1.31,6.2-0.8C23,159.09,22.92,156.77,22.16,154.46z"/>
			<path class="st4" d="M15.27,121.81c-0.15-2.29-1.78-4.47-3.92-5.03c-0.1-0.13-0.2-0.26-0.31-0.38c-0.87-1.02-2.93-1.33-4.04-0.52
				c-2.28,1.67-3.67,4.23-2.81,7.1c0.75,2.52,3.23,4.37,5.9,4.23C12.93,127.07,15.46,124.8,15.27,121.81z"/>
			<path class="st4" d="M12.44,82.15c-3.02,0.17-5.12,2.78-5.05,5.73c0.05,2.35,1.27,4.4,2.72,6.16c0.67,0.82,1.68,1.18,2.72,1.2
				c0.29,0.25,0.6,0.49,0.9,0.72c1.94,1.46,4.64-0.16,5.26-2.14C20.47,89.09,18.56,81.81,12.44,82.15z"/>
			<path class="st4" d="M18.22,17.01c-1.29-3.78-4.46-7.56-8.94-6.34c-3.89,1.06-6.07,5.22-5.65,9.05c0.44,4.06,3.05,7.06,6.36,8.9
				c0.2,0.11,0.4,0.19,0.62,0.26c2.24,2.88,6.03,2.25,7.42-1.08C19.43,24.42,19.4,20.46,18.22,17.01z"/>
			<path class="st4" d="M20.19,46.63c-0.38-0.83-1.11-1.5-1.85-2c-1.13-0.76-2.77-0.67-3.9,0c-1.24,0.73-1.82,1.95-1.91,3.34
				c-0.09,1.33,0.21,2.81,0.87,3.97c0.55,0.98,1.33,1.67,2.25,2.09c0.18,0.21,0.38,0.41,0.59,0.6c1.66,1.48,4.82,1.09,5.33-1.41
				C22.05,50.82,21.63,48.52,20.19,46.63z"/>
			<path class="st4" d="M40.75,34.26c0.02,0.17-0.25-1.68-0.41-2.23c-0.03-0.79-0.22-1.58-0.65-2.2l-0.03,0.03
				c-0.28-0.48-0.64-0.91-1.11-1.27c-2.42-1.87-5.5-0.92-7.25,1.34c-0.61,0.78-1.08,1.59-1.3,2.58c-0.13,0.58-0.23,1.17-0.19,1.76
				c0.06,0.44,0.12,0.89,0.18,1.33c0.6,1.42,0.67,1.59,0.22,0.5c0.62,1.51,1.74,2.88,3.3,3.35c0.16,0.17,0.31,0.34,0.49,0.49
				c2.25,1.95,5.25,1.07,6.27-1.66C40.76,37,40.91,35.62,40.75,34.26z"/>
			<path class="st4" d="M30.74,66.03c0-0.14,0.01-0.29,0.01-0.43c0.01-1.04-0.08-2.02-0.29-3.04c-0.37-1.79-2.34-2.86-4.03-2.63
				c-1.48,0.2-2.64,1.26-3.03,2.64c-0.01,0-0.02-0.01-0.03-0.01c-0.02,0.07-0.02,0.14-0.03,0.21c-0.03,0.12-0.04,0.24-0.06,0.36
				c-0.14,0.82-0.22,1.63-0.22,2.48c0,0.75,0.03,1.47,0.33,2.17c0.39,0.93,1.01,1.42,1.79,2.01c0.46,0.34,1.13,0.5,1.8,0.48
				c0.75,0.11,1.63-0.01,2.24-0.41C30.63,68.95,31.09,67.5,30.74,66.03z"/>
			<path class="st4" d="M61,16.64c-0.34-0.85-0.68-1.6-1.22-2.32c-0.31-0.42-0.63-0.84-0.95-1.24c-0.07-0.08-0.14-0.16-0.21-0.23
				c-0.43-0.57-0.95-1.04-1.58-1.41c-3.26-1.83-6.88-0.31-8.7,2.72c-1.75,2.91-0.83,7.3,2.21,8.98c0.64,0.35,1.3,0.56,1.94,0.64
				c0.48,0.56,1.04,1.05,1.68,1.46c1.27,0.81,2.89,0.81,4.23,0.24c1.44-0.61,2.2-1.65,2.75-3.08C61.81,20.64,61.68,18.37,61,16.64z"
				/>
			<path class="st4" d="M80.45,10.04c-0.02-0.08-0.03-0.16-0.06-0.24c-0.11-0.35-0.27-0.77-0.48-1.08c0.04,0.08,0.07,0.17,0.11,0.25
				c-0.18-0.41-0.4-0.79-0.76-1.14c-0.54-0.52-1.11-0.86-1.83-1.1c-0.79-0.26-1.72-0.29-2.52-0.04c-1.93,0.59-3.16,2.42-2.89,4.42
				c0.11,0.85,0.46,1.72,1.11,2.31c0.06,0.04,0.11,0.09,0.17,0.13c0.17,0.33,0.37,0.64,0.65,0.92c0.86,0.86,2.34,1.37,3.53,0.93
				c0.72-0.27,1.33-0.56,1.88-1.12c0.49-0.51,0.92-1.23,1.08-1.92C80.63,11.54,80.61,10.87,80.45,10.04z"/>
		</g>
		<g>
			<path class="st3" d="M551.99,443.49c-0.92-2.81-3.49-5.55-6.71-4.61c-2.53,0.74-3.89,3.42-3.86,5.91
				c0.01,1.28,0.42,2.53,1.11,3.59c0.26,0.4,0.58,0.75,0.85,1.14c0.15,0.21,0.29,0.43,0.42,0.65c0.01,0.06,0.03,0.17,0.08,0.37
				c0.37,2.14,3,3.35,4.96,2.81c1.59-0.44,2.55-1.69,2.82-3.15C552.53,448.09,552.72,445.74,551.99,443.49z"/>
			<path class="st3" d="M538.62,455.63c-1.34-0.33-3.21,0.19-3.84,1.56c-0.68,1.49-1.11,3.34-0.23,4.86c0.59,1.02,1.46,1.61,2.5,1.9
				c0.21,0.35,0.42,0.68,0.62,1c1.48,2.34,5.1,1.94,5.89-0.77C544.62,460.56,542.29,456.53,538.62,455.63z"/>
			<path class="st3" d="M559.59,465.27c-0.1-0.25-0.22-0.49-0.37-0.69c-0.53-0.72-1.06-1.27-1.91-1.63
				c-0.79-0.33-1.75-0.47-2.59-0.2c-1.63,0.53-3,2.05-2.93,3.84c0,0.03,0,0.07,0,0.1c-0.38,0.9-0.46,1.9-0.19,2.88
				c0.33,1.23,1.11,2.13,2.12,2.86c0.51,0.37,1.11,0.56,1.67,0.86c2.49,1.32,5.64-0.31,5.65-3.24
				C561.05,468.25,560.5,466.71,559.59,465.27z"/>
			<path class="st3" d="M585.81,463.26c-0.17-0.63-0.46-1.29-0.84-1.83c-0.25-0.36-0.52-0.74-0.83-1.04
				c-0.37-0.36-1.79-1.47-0.51-0.42c-0.8-0.66-1.72-1.21-2.81-1.16c-1.04,0.05-2.07,0.39-2.81,1.16c-1.24,1.29-2,2.94-1.79,4.76
				c0.12,1.05,0.35,2.08,1.18,2.84c0.26,0.24,0.54,0.43,0.83,0.6c0.74,0.72,1.67,1.28,2.74,1.59c1.5,0.43,3.59-0.26,4.3-1.75
				C585.99,466.5,586.27,464.91,585.81,463.26z"/>
			<path class="st3" d="M568.42,485.2c-0.21-1.23-1.44-2.27-2.59-2.59c-1.32-0.36-2.62,0.05-3.6,0.95c-1.12,1.03-1.8,2.56-1.73,4.08
				c-0.83,1.35-0.4,3.38,0.69,4.49c1.26,1.3,2.97,1.53,4.67,1.23c1.14-0.2,2.26-1.38,2.49-2.49
				C568.75,488.92,568.74,487.15,568.42,485.2z"/>
			<path class="st3" d="M584.44,480.8c0.04,0.11,0.09,0.21,0.13,0.32c-0.09-0.43-0.25-0.87-0.51-1.23c-0.02-0.05-0.04-0.1-0.06-0.15
				c-0.27-0.5-0.64-0.91-1.11-1.21c-0.79-0.61-1.6-0.85-2.61-0.93c-1.17-0.08-2.42,0.51-3.24,1.32c-0.56,0.55-0.89,1.13-1.15,1.84
				c-0.2,0.29-0.35,0.61-0.43,0.96c-0.31,1.27-0.2,2.64,0.58,3.74c0.47,0.68,1.03,1.26,1.78,1.63c0.84,0.41,1.48,0.6,2.43,0.62
				c2.2,0.05,3.6-1.67,4.28-3.54c0.18-0.5,0.28-1.09,0.27-1.6C584.78,481.84,584.66,481.36,584.44,480.8z"/>
			<path class="st3" d="M605.17,458.44c-0.59-0.96-1.43-1.8-2.41-2.36c-0.47-0.26-1.01-0.47-1.53-0.61c-0.4-0.05-0.8-0.11-1.2-0.16
				c-0.22-0.03-0.13-0.01,0.27,0.05c1.03,0.17-0.78-0.09-0.95-0.11c-1.3-0.11-2.48,0.61-3.28,1.61c-1.69,1.73-1.61,4.53-0.49,6.66
				c0.46,0.88,1.2,1.68,2.09,2.14c0.46,0.24,0.89,0.38,1.31,0.49c0.5,0.32,1.05,0.57,1.64,0.73c1.89,0.51,3.46-0.39,4.56-1.85
				C606.59,463.16,606.34,460.34,605.17,458.44z"/>
			<path class="st3" d="M611.6,477.24c-2.21-0.93-4.93-0.54-6.68,1.17c-0.21,0.14-0.41,0.29-0.59,0.47
				c-2.07,2.06-1.92,5.14-0.65,7.57c1.02,1.95,3.22,3.47,5.35,3.93c2.76,0.59,5.18-0.81,6.1-3.47
				C616.39,483.3,615.39,478.84,611.6,477.24z"/>
			<path class="st3" d="M629.19,465.8c-2.39-0.74-4.94,0.1-6.27,2.26c-0.73,1.19-1.08,2.56-0.72,3.96c0.2,0.76,0.74,1.9,1.4,2.41
				c0.73,0.57,1.42,0.96,2.23,1.07c0.21,0.22,0.42,0.43,0.62,0.62c1.95,1.77,5.06,1.53,6.45-0.83
				C634.97,471.77,633.06,467,629.19,465.8z"/>
			<path class="st3" d="M677.96,470.69c-0.79-1.34-2.31-2.3-3.76-2.63c-1.7-0.4-3.3-0.11-4.68,0.96c-1.41,1.09-1.97,2.47-2.12,4.22
				c-0.11,1.37-0.15,2.78,0.64,4c0.16,0.2,0.31,0.4,0.47,0.6c0.1,0.59,0.29,1.18,0.57,1.78c1.29,2.84,5.15,3.58,7.7,2.05
				C680.5,479.42,680.61,473.84,677.96,470.69z"/>
			<g>
				<path class="st3" d="M657.15,484.44c0,0.02,0.01,0.04,0.01,0.07C656.97,483.2,657.06,483.85,657.15,484.44z"/>
				<path class="st3" d="M657.24,485.04c0.01,0.07-0.04-0.26-0.09-0.6c-0.16-1.09-0.33-1.72-0.82-2.76
					c-0.42-0.91-1.68-1.81-2.64-2.03c-1.15-0.26-2.37-0.18-3.41,0.45c-1.2,0.73-1.96,1.73-2.37,2.94c-0.72,0.57-1.28,1.47-1.18,2.38
					c0.17,1.51,0.75,2.41,1.89,3.35c0.8,0.66,1.62,1.26,2.49,1.82c1.79,1.15,4.12,0.29,5.21-1.36c0.71-1.08,1.03-2.43,0.96-3.71
					C657.27,485.36,657.25,485.2,657.24,485.04z"/>
			</g>
			<path class="st3" d="M710.49,471.8c-0.65-1.55-1.67-2.65-3.03-3.62c-0.84-0.6-2.41-0.75-3.36-0.44
				c-1.15,0.37-1.88,1.05-2.61,2.01c-1.03,1.34-1.28,3.11-0.78,4.7c0.14,0.45,0.38,0.87,0.68,1.25c0.79,1.83,2.49,3.16,4.39,3.76
				c1.99,0.64,4.79-0.75,5.15-2.92C711.2,474.87,711.15,473.37,710.49,471.8z"/>
			<path class="st3" d="M698.69,490.95c0.57-0.82,0.93-1.83,0.97-2.97c0.09-2.12-0.96-4.3-2.85-5.35c-2.27-1.26-5-0.69-6.8,1.09
				c-2.3,2.27-2.35,6.06,0.46,7.92c0.52,0.35,1.16,0.51,1.8,0.52c0.67,0.7,1.58,1.12,2.64,0.99l0.68,0.62
				c1.67,1.51,4.65-0.46,3.28-2.53L698.69,490.95z"/>
			<path class="st3" d="M722.58,484.16c-0.54-1.96-2.69-3.21-4.66-2.67c-1.66,0.46-2.89,2.12-2.76,3.85
				c0.03,0.38,0.1,0.74,0.21,1.09c0.02,0.68,0.18,1.34,0.57,1.97c0.62,1.01,1.5,1.58,2.58,2c1.06,0.41,2.42-0.08,3.19-0.84
				c0.41-0.41,0.69-0.89,0.84-1.45c0.14-0.51,0.15-1.01,0.05-1.52C722.81,485.81,722.79,484.94,722.58,484.16z"/>
			<path class="st3" d="M728.26,457.84c-0.16-0.67-0.45-1.22-0.83-1.75c-0.03-0.07-0.06-0.14-0.09-0.2
				c-0.35-0.64-0.93-1.22-1.55-1.59c-2.14-1.3-5.28-0.51-6.47,1.75c-1,1.9-0.83,4.57,0.92,6.03c0.22,0.18,0.45,0.36,0.68,0.52
				c0.35,0.42,0.76,0.81,1.24,1.16c0.71,0.51,2.06,0.64,2.87,0.37c0.94-0.3,1.69-0.86,2.22-1.71
				C728.13,461.04,728.65,459.45,728.26,457.84z"/>
			<path class="st3" d="M738.7,463.9c-1-1.29-2.69-1.88-4.28-1.41c-1.77,0.52-2.99,2.18-2.94,4.03c0.04,1.52,1.06,3.1,2.6,3.5
				c0.58,0.81,1.41,1.35,2.44,1.35c1,0,2.04-0.55,2.53-1.45c0.49-0.92,0.77-1.87,0.71-2.92C739.69,465.86,739.41,464.81,738.7,463.9
				z"/>
		</g>
		<g>
			<path class="st5" d="M392.06,74.99c-1.15-1.09-2.62-1.76-4.2-1.83c-1.07-0.05-2.13,0.36-3.04,0.99
				c-2.55,0.79-4.55,3.08-4.55,6.03c0,3.83,3.21,7.25,7.07,7.32c3.98,0.08,6.89-3.47,6.91-7.26
				C394.25,78.32,393.46,76.32,392.06,74.99z"/>
			<path class="st5" d="M381,97.07c-0.21-2.03-1.16-3.89-2.98-4.94c-1.75-1.01-4.03-1.25-5.82-0.2c-1.65,0.97-2.76,2.93-2.65,4.86
				c0.1,1.85,1.16,3.48,2.88,4.16c0.1,0.23,0.22,0.45,0.37,0.65c0.9,1.2,1.97,2.04,3.55,2.04c1.38,0,2.9-0.77,3.55-2.04
				C380.61,100.19,381.17,98.67,381,97.07z"/>
			<path class="st5" d="M394.86,96.69c-1.13-1.91-3.46-2.36-5.37-1.41c-1.76,0.88-2.51,3.07-2.02,4.9c0.15,0.56,0.38,1.1,0.72,1.57
				c0.02,1.04,0.47,2.21,1.26,2.88c1.05,0.89,2.29,1.35,3.67,0.97c1.26-0.35,2.3-1.37,2.64-2.64
				C396.35,100.8,395.99,98.6,394.86,96.69z"/>
			<path class="st5" d="M409.97,90.14c-3.13,0.16-5.33,2.9-4.58,6.01c0.4,1.66,0.5,3.29,1.37,4.8c0.86,1.5,1.98,2.39,3.38,3.32
				c0.38,0.26,0.84,0.38,1.31,0.41c0.02,0.04,0.04,0.07,0.06,0.11c0.87,1.61,2.84,2.43,4.58,2.19c1.96-0.26,3.09-1.54,3.82-3.29
				C422.53,97.36,416.58,89.8,409.97,90.14z"/>
			<path class="st5" d="M360.86,108.25c-2.04-0.65-4.06,0.7-4.78,2.57c-0.77,1.34-0.3,3.06,0.49,4.36c0.54,0.89,1.22,1.72,1.84,2.56
				c0.82,1.11,1.82,1.87,3.27,1.87c1.32,0,2.61-0.72,3.27-1.87C367.06,113.97,364.78,109.5,360.86,108.25z"/>
			<path class="st5" d="M390.15,117.53c-1.8-0.92-4.31-0.87-5.76,0.74c-1.86,2.08-2.83,4.92-2.13,7.7c0.33,1.31,0.99,2.73,1.94,3.71
				c1.12,1.16,2.35,1.49,3.78,1.64c2.36,2.25,6.78,1.53,7.66-1.99C396.86,124.51,394.5,119.76,390.15,117.53z"/>
			<path class="st5" d="M416.87,127.59c0.12-0.67,0.1-1.36-0.09-2.05c-0.44-1.59-1.73-2.93-3.34-3.34
				c-1.76-0.46-3.59-0.03-4.88,1.11c-0.72,0.21-1.34,0.6-1.83,1.24c-0.69,0.89-0.97,2.03-0.64,3.14c0.37,1.25,0.93,2.41,1.89,3.32
				c1.04,0.98,2.09,1.53,3.4,2.05c0.89,0.35,2.38,0.09,3.16-0.41c0.91-0.59,1.57-1.4,1.89-2.45c0.11-0.38,0.18-0.78,0.23-1.17
				C416.77,128.55,416.86,128.07,416.87,127.59z"/>
			<path class="st5" d="M452.15,101.08c-0.15-1.36-0.36-2.26-0.97-3.5c-0.73-1.46-1.97-2.71-3.38-3.52c-1.54-0.88-3.79-1.06-5.32,0
				c-1.99,1.38-3.55,3.45-3.3,5.9c0,0.26,0.01,0.52,0.04,0.78c-0.02-0.13-0.03-0.25-0.05-0.38c0.02,0.37,0.07,0.72,0.14,1.06
				c0.01,0.06,0.02,0.11,0.02,0.16c-0.01-0.05-0.01-0.1-0.02-0.15c0.34,1.68,1.27,3.05,2.68,4.14c1.49,1.15,3.09,1.67,4.96,1.8
				c1.12,0.08,2.29-0.46,3.14-1.11c0.81-0.62,1.7-1.64,1.86-2.7C452.08,102.72,452.24,101.93,452.15,101.08z"/>
			<path class="st5" d="M435.81,110.88c-0.84-1.35-1.98-2.14-3.44-2.69c-1.36-0.51-2.88,0.14-3.9,1.03
				c-1.98,1.75-3.03,5.11-1.36,7.45c0.98,1.37,2.33,2.18,4.07,1.95c0.35-0.05,0.68-0.14,1-0.27c0.47,0.06,0.95,0.06,1.42-0.05
				c0.82-0.19,1.39-0.74,1.88-1.36c0.5-0.48,0.88-1.09,1-1.72C436.76,113.72,436.63,112.2,435.81,110.88z"/>
			<path class="st5" d="M450.65,126.64c-0.06-0.15-0.13-0.3-0.19-0.45c-0.28-0.51-0.65-0.92-1.13-1.23
				c-0.83-0.64-1.61-0.82-2.65-0.94c-1.41-0.16-3.09,0.54-4.04,1.56c-1.02,1.1-1.4,2.58-1.06,3.95c0,0.3,0.04,0.61,0.13,0.91
				c0.02,0.13,0.05,0.26,0.08,0.39c0.26,0.91,0.68,1.64,1.32,2.34c0.82,0.89,2.01,1.56,3.17,1.86c2.08,0.53,4.27-0.67,4.86-2.76
				C451.65,130.39,451.69,128.29,450.65,126.64z"/>
			<path class="st5" d="M471.24,119.15c-0.03-0.32-0.07-0.64-0.12-0.96c-0.15-0.99-1.19-2.21-2.05-2.66
				c-1.06-0.56-2.26-0.79-3.44-0.45c-0.65,0.19-1.27,0.5-1.8,0.92c-0.88,0.15-1.69,0.54-2.31,1.24c-0.55,0.62-0.91,1.29-1.02,2.12
				c-0.12,0.88,0.08,1.54,0.44,2.36c0.83,1.86,3.13,2.91,5.09,2.8C468.78,124.36,471.81,122.18,471.24,119.15z"/>
			<path class="st5" d="M488.38,132.33c-0.54-0.7-1.89-1.17-2.73-1.13c-1.06,0.05-1.94,0.42-2.73,1.13
				c-1.1,0.98-1.81,2.17-2.02,3.63c-0.05,0.32-0.07,0.64-0.07,0.94c-0.2,1.36,0.21,2.79,1.22,3.91c1.61,1.78,4.53,2.39,6.33,0.5
				c1.13-1.18,1.77-2.72,1.81-4.35C490.24,135.14,489.46,133.71,488.38,132.33z"/>
			<path class="st5" d="M466.28,91.58C466.27,91.58,466.27,91.58,466.28,91.58c-0.02-0.04-0.04-0.06-0.06-0.09
				c-0.13-0.2-0.26-0.37-0.39-0.53c-0.07-0.19-0.15-0.38-0.24-0.55c-0.11-0.75-0.5-1.39-1.31-1.73c-1.05-0.44-2.2-0.03-2.81,0.92
				c-0.01,0.01-0.01,0.02-0.01,0.02c-0.46,0.42-0.73,0.96-0.89,1.58c-0.49,0.61-0.82,1.15-0.93,1.98c-0.09,0.7,0.01,1.33,0.37,1.95
				c0.04,0.06,0.08,0.11,0.13,0.16c0.01,0.02,0.01,0.02,0.03,0.05c0.69,1.21,1.99,1.78,3.26,1.72c1.15,0.18,2.41-0.34,3.11-1.25
				C467.51,94.56,467.42,92.74,466.28,91.58z"/>
		</g>
		<g>
			<path class="st2" d="M483.01,12.67c-2.92-1.68-6.08,0.12-7.29,2.94c-1.07,2.5-1.28,5.61,0.21,7.99c0.12,0.19,0.26,0.35,0.4,0.5
				c0.16,0.33,0.33,0.66,0.54,0.97c1.37,2.06,4.32,2.7,6.17,0.79C486.17,22.64,487.73,15.38,483.01,12.67z"/>
			<path class="st2" d="M482.86,37.08c-0.28-0.61-0.94-1.06-1.52-1.3c-0.18-0.07-0.36-0.13-0.54-0.18
				c-0.07-0.02-0.14-0.06-0.21-0.07c-1.43-0.37-2.72,0.36-3.3,1.5c-0.01,0.01-0.02,0.01-0.03,0.02c-0.29,0.25-0.53,0.59-0.74,0.91
				l0.02-0.02c-0.26,0.38-0.44,0.82-0.51,1.33c-0.08,0.57-0.04,1.13,0.13,1.7c0.31,1.03,1.05,2.05,2.03,2.54
				c1.37,0.68,2.63,0.44,3.78-0.49c0.7-0.56,1.23-1.54,1.39-2.42C483.59,39.32,483.4,38.25,482.86,37.08z"/>
			<path class="st2" d="M484.5,48.67c-0.52,0.48-0.96,1.02-1.33,1.63c-0.26,0.43-0.42,0.95-0.47,1.48
				c-0.11,0.15-0.22,0.31-0.31,0.47c-0.71,1.18-1.28,2.43-1.78,3.71c-0.53,1.36,0.27,3.08,1.33,3.89c1.14,0.88,2.85,1.08,4.11,0.29
				c3.03-1.88,4.97-5.23,4.81-8.84C490.72,48.02,486.91,46.48,484.5,48.67z"/>
			<path class="st2" d="M513.14,42.21c-0.49-0.77-1.23-1.45-2.15-1.66c-0.71-0.16-1.28-0.2-1.93-0.12c-0.12-0.03-0.24-0.06-0.36-0.1
				c-1.76-0.46-3.53,0.58-4.06,2.3c-0.3,0.97-0.29,2.05-0.35,3.06c-0.11,1.82,1.72,3.66,3.54,3.54c1.31-0.09,2.46-0.47,3.5-1.27
				c1.04-0.8,1.71-1.76,2.17-3C513.8,44.19,513.6,42.91,513.14,42.21z"/>
			<path class="st2" d="M501.33,24.32c-1.37-0.58-2.68-0.19-3.79,0.72c-1.23,1.01-2.35,2.12-3.18,3.49c-0.77,1.28-0.5,2.72,0.3,3.76
				c0.01,0.07,0.01,0.14,0.02,0.21c0.29,2.03,3.3,3.17,4.91,2c2.35-1.7,3.73-4.08,3.86-7C503.53,26.12,502.54,24.83,501.33,24.32z"
				/>
			<path class="st2" d="M510.17,5.89c-1.54-0.09-3.09,0.58-4.16,1.67c-1.63,1.66-2.19,4.45-0.4,6.23c0.41,0.41,1,0.72,1.63,0.89
				c0.3,0.27,0.64,0.51,1.01,0.69c2.92,1.45,6.23-0.34,6.66-3.56C515.31,8.87,513.2,6.06,510.17,5.89z"/>
			<path class="st2" d="M534.25,21.76c-0.3-0.92-0.85-1.69-1.69-2.19c-0.1-0.06-0.2-0.1-0.3-0.15c-1.65-1.19-3.91-1.02-5.64,0.04
				c-1.59,0.97-2.39,3.14-1.6,4.87c-0.02,0.18-0.04,0.36-0.05,0.54c-0.15,2.33,2.36,3.93,4.45,3.39c1.85-0.48,3.69-1.88,4.46-3.67
				C534.27,23.69,534.57,22.75,534.25,21.76z"/>
			<path class="st2" d="M562.43,21.05c-0.07-0.51-0.22-1-0.42-1.46c-0.04-0.09-0.08-0.19-0.12-0.28c-0.1-0.22-0.23-0.42-0.38-0.61
				c-0.31-0.44-0.69-0.83-1.13-1.14c-0.02-0.01-0.03-0.03-0.05-0.05c-0.72-0.56-1.44-0.75-2.36-0.83c-1.49-0.13-3.08,0.81-3.8,2.05
				c-0.61,1.04-0.65,2.25-0.19,3.34c0.16,0.37,0.38,0.74,0.65,1.06c0.12,0.44,0.29,0.87,0.54,1.21c0.55,0.77,1.24,1.48,2.21,1.7
				c1,0.23,1.93,0.1,2.85-0.37C561.92,24.81,562.68,22.85,562.43,21.05z"/>
			<path class="st2" d="M548.45,31.97c-0.49-1.3-1.65-2.31-3.28-2.26c-0.72,0.02-1.46,0.05-2.15,0.26
				c-1.38,0.43-2.56,1.73-2.59,3.23c-0.2,0.23-0.41,0.46-0.61,0.68c-1.18,1.44-1.51,3.64,0,5.03c1.39,1.28,3.66,1.44,5.03,0
				c0.96-1.01,1.92-2.02,2.88-3.03c0.38-0.4,0.64-0.86,0.79-1.34c0.01-0.03,0.04-0.06,0.05-0.09
				C548.92,33.69,548.95,32.67,548.45,31.97z"/>
			<path class="st2" d="M598.29,15.49c-0.22-1.27-0.58-2.55-1.31-3.63c-0.57-0.84-1.3-1.61-2.2-2.1c-0.39-0.21-0.88-0.43-1.31-0.54
				c-0.4-0.11-0.26-0.03,0.44,0.26c-0.35-0.16-0.7-0.31-1.06-0.45c-2.02-0.6-4.22-0.07-5.72,1.43c-1.61,1.62-1.83,4.14-0.74,6.09
				c0.77,1.39,1.79,2.36,3.33,2.89c0.43,0.15,0.89,0.18,1.36,0.14c1.01,0.6,2.27,0.97,3.43,0.85
				C597.22,20.17,598.76,18.17,598.29,15.49z"/>
			<path class="st2" d="M578.44,24.3c-0.01-0.02-0.02-0.03-0.03-0.05c-0.35-1.18-1.21-2.15-2.47-2.5c-2.27-0.64-4.24,0.51-4.99,2.66
				c-0.04,0.11-0.05,0.21-0.08,0.32c-0.11,0.15-0.22,0.31-0.31,0.48c-0.46,0.92-0.36,1.94,0.35,2.7c1.25,1.35,3.15,1.25,4.83,1.09
				c1.13-0.11,2.1-0.53,2.7-1.55C578.99,26.51,579.02,25.24,578.44,24.3z"/>
			<path class="st2" d="M543.95,9.49c0-0.65-0.17-1.26-0.49-1.82c-0.49-0.64-0.71-1.03-1.44-1.43c-0.9-0.5-1.96-0.75-2.99-0.43
				c-0.37,0.11-0.75,0.25-1.08,0.46c-0.27,0.17-0.57,0.41-0.8,0.62c-0.04,0.04-0.08,0.08-0.12,0.13c-0.19,0.24-0.37,0.48-0.56,0.72
				c-0.26,0.41-0.4,0.85-0.42,1.32c-0.08,0.32-0.08,0.63,0,0.95c0.02,0.47,0.16,0.92,0.42,1.32c0.19,0.24,0.37,0.48,0.56,0.72
				c0.24,0.19,0.48,0.37,0.72,0.56c0.08,0.05,0.16,0.07,0.24,0.11c0.17,0.17,0.36,0.32,0.58,0.45c0.48,0.28,1,0.42,1.56,0.42
				c0.18,0.02,0.36-0.03,0.54-0.05c0.18-0.02,0.35-0.04,0.52-0.08c0.31-0.07,0.61-0.2,0.87-0.38c0.22-0.17,0.44-0.34,0.67-0.51
				c0.02-0.02,0.04-0.05,0.06-0.07c0.49-0.59,0.71-0.89,0.94-1.63c0.06-0.21,0.11-0.42,0.14-0.64
				C543.92,9.97,543.95,9.73,543.95,9.49z"/>
			<path class="st2" d="M616.83,19.33c-0.3-0.29-0.64-0.57-1-0.78c-0.53-0.32-0.86-0.39-1.39-0.47c-0.61-0.17-1.3-0.22-1.88,0
				c-1.17,0.43-2.55,1.16-3.08,2.37c-0.12,0.29-0.25,0.59-0.37,0.88c-0.15,0.49-0.18,0.98-0.07,1.47c0.1,0.78,0.42,1.58,1.02,2.12
				c0.32,0.29,0.69,0.51,1.07,0.7c0.8,1.17,2.21,1.77,3.69,1.4c2.04-0.51,3.29-2.49,3.29-4.52
				C618.11,21.38,617.64,20.14,616.83,19.33z"/>
		</g>
		<g>
			<path class="st3" d="M637.86,192.75c-1.26-1.69-3.26-2.47-5.24-1.37c-2.24,1.23-3.63,3.76-3.61,6.3c0.01,1.26,0.41,2.58,1.1,3.67
				c0.09,0.19,0.18,0.38,0.29,0.57c1.35,2.17,4.27,2.9,6.5,1.67c1.93-1.06,3.15-3.19,3.16-5.4
				C640.06,196.12,639.05,194.35,637.86,192.75z"/>
			<path class="st3" d="M653.23,202.57c0-0.71-0.26-1.39-0.69-1.94c-0.35-0.45-0.76-0.77-1.28-0.99c-0.46-0.2-1.09-0.33-1.63-0.27
				c-0.44-0.04-0.88-0.01-1.28,0.12c-0.69,0.22-1.19,0.57-1.76,1.04c-0.44,0.37-0.75,0.76-1.09,1.25c-0.13,0.31-0.26,0.61-0.39,0.92
				c-0.16,0.51-0.18,1.02-0.07,1.54c0.11,0.81,0.44,1.64,1.06,2.21c0.49,0.45,1.07,0.79,1.7,0.99c0.9,0.29,2.18,0.11,2.97-0.39
				c0.47-0.3,0.9-0.66,1.27-1.07c0.45-0.51,0.89-1.08,1.04-1.75c0.09-0.4,0.12-0.79,0.11-1.18
				C653.21,202.89,653.23,202.73,653.23,202.57z"/>
			<path class="st3" d="M635.1,219.34c-0.68-1.28-2.18-2.07-3.61-2.07c-1.55,0-2.77,0.83-3.61,2.07c-0.36,0.54-0.69,1.08-0.96,1.63
				c-1.01,1.29-1.15,2.77-0.76,4.2c0.07,0.57,0.28,1.1,0.64,1.56c0.75,1.38,1.9,2.61,3.11,3.43c2.32,1.57,5.26-0.1,6.04-2.46
				C636.88,224.9,636.46,221.9,635.1,219.34z"/>
			<path class="st3" d="M622.56,244.47c-1.16-0.59-2.46-0.62-3.6-0.2c-1.26-0.12-2.6,0.39-3.21,1.57c-0.47,0.93-0.5,2.23,0.2,3.07
				c0.03,0.06,0.07,0.12,0.11,0.18c0.09,0.54,0.25,0.99,0.5,1.54c0.5,1.09,1.55,2.02,2.71,2.34c2.34,0.66,4.79-0.92,5.44-3.2
				C625.28,247.75,624.46,245.44,622.56,244.47z"/>
			<path class="st3" d="M652.51,245.09c-0.19-1.39-0.58-2.56-1.76-3.47c-0.75-0.58-1.52-0.84-2.38-0.96
				c-1.86-0.52-3.89,0.19-5.26,1.48c-1.15,1.07-1.74,2.65-1.69,4.22c0.05,1.39,0.72,2.66,1.94,3.37c0.05,0.03,0.11,0.05,0.17,0.08
				c1.01,1.5,2.66,2.5,4.59,2.46c1.94-0.04,3.52-1.3,4.1-3.12C652.62,247.82,652.69,246.45,652.51,245.09z"/>
			<path class="st3" d="M657.92,267.69c-0.75-1.2-2.18-1.9-3.53-2.08c-1.64-0.22-3.27,0.28-4.5,1.39c-2.5,2.26-1.87,6.44,0.94,8.12
				c1.78,1.28,4.51,1.09,6.07-0.48c0.51-0.51,0.83-1.13,1-1.78c0.15-0.18,0.3-0.36,0.42-0.56C659.2,270.84,659,268.94,657.92,267.69
				z"/>
			<path class="st3" d="M676,260.68c-0.94-0.87-2.22-1.46-3.51-1.49c-1.44-0.03-2.53,0.58-3.62,1.45c-0.21,0.27-0.42,0.55-0.64,0.82
				c-0.3,0.47-0.46,0.97-0.48,1.51c-0.01,0.05-0.01,0.1-0.01,0.15c-0.05,0.29-0.08,0.58-0.11,0.87c-0.13,1.25,0.79,2.58,1.82,3.18
				c0.37,0.22,0.79,0.36,1.23,0.44c0.58,0.53,1.28,0.94,2.07,1.15c0.92,0.25,2.14,0.14,2.96-0.39c0.88-0.56,1.42-1.31,1.77-2.3
				C678.15,264.22,677.42,261.99,676,260.68z"/>
			<path class="st3" d="M665.51,291.33c-1.26-0.73-2.86-0.74-4.12,0c-1.37,0.8-1.82,2.04-2.02,3.52c-0.39,2.93-0.15,5.77,1.76,8.13
				c0.65,0.81,1.55,1.18,2.49,1.24c0.28,0.23,0.59,0.44,0.95,0.58c1.63,0.66,4.11,0.21,4.9-1.6c0.14-0.32,0.25-0.64,0.35-0.96
				c0.02,0.01,0.03,0.01,0.05,0.02C671.15,298.1,669.23,293.5,665.51,291.33z"/>
			<path class="st3" d="M676.9,282.62c-0.2-2.03-1.3-3.69-3.32-4.29c-1.65-0.49-3.41,0.45-4.06,1.99c-0.39,0.93-0.34,1.9,0.05,2.73
				c0.03,0.28,0.07,0.56,0.1,0.83c0.13,1.22,0.56,2.27,1.68,2.92c1.04,0.61,2.37,0.61,3.42,0
				C676.18,285.98,677.06,284.28,676.9,282.62z"/>
			<path class="st3" d="M698.07,288.47c-2.35-1.41-6.2-0.91-7.41,1.82c-0.72,1.62-0.52,2.92,0.55,4.29c0.39,0.5,0.95,0.77,1.55,0.89
				c0.01,0.01,0.01,0.02,0.02,0.02c0,0,0,0-0.01,0c0,0,0,0,0.01,0c0.96,1.41,2.49,2.47,4.12,2.91c2.16,0.59,4.37-1.08,4.36-3.32
				C701.26,292.52,700.36,289.84,698.07,288.47z"/>
			<path class="st3" d="M685.68,300.55c-0.31-0.73-0.76-1.21-1.42-1.66c-0.37-0.25-0.83-0.43-1.25-0.56
				c-0.31-0.09-0.63-0.12-0.96-0.14c-0.13-0.02-0.25-0.03-0.38-0.03c-0.01,0-0.03,0-0.04,0c0.01,0,0.02,0,0.03,0
				c-0.68-0.01-1.4,0.15-1.92,0.48c-0.74,0.48-1.55,1.27-1.68,2.18c-0.13,0.9-0.2,1.54,0.17,2.42c0.3,0.71,0.75,1.25,1.43,1.66
				c0.03,0.02,0.06,0.03,0.08,0.05c0.42,0.27,0.87,0.41,1.36,0.43c0.47,0.11,0.95,0.08,1.42-0.06c0.14,0,0.29-0.01,0.46-0.03
				c1.1-0.15,1.89-0.72,2.53-1.62c0.15-0.21,0.29-0.62,0.36-0.86C686.07,302.05,685.98,301.25,685.68,300.55z"/>
		</g>
		<g>
			<path class="st14" d="M711.78,144.37c-1.09-1.61-3.13-2.3-4.9-1.28c-1.07,0.61-1.91,1.48-2.39,2.61
				c-0.76,1.79-0.63,3.9,1.02,5.17c0.45,0.35,0.95,0.57,1.45,0.69c0.65,0.6,1.41,0.98,2.29,1.33c0.94,0.37,2.09,0,2.84-0.58
				c0.85-0.65,1.21-1.5,1.28-2.56C713.52,147.83,712.84,145.94,711.78,144.37z"/>
			<path class="st14" d="M716.69,177.36c-1.76-1.14-4.17-0.87-5.89,0.2c-1.22,0.75-2.06,1.91-2.45,3.28
				c-0.15,0.53-0.23,1.12-0.24,1.67c-0.02,0.88,0.25,1.61,0.68,2.25l-0.01-0.01c0.92,1.46,2.34,2.33,4.09,2.1
				c0.05-0.01,0.1-0.02,0.15-0.03c0.42,0.2,0.88,0.32,1.37,0.34c0.22,0.01,0.16,0-0.19-0.04c-0.46-0.07-0.41-0.06,0.16,0.02
				c0.52,0.07,0.98,0.06,1.51-0.09c1.04-0.3,1.71-0.98,2.31-1.83c0.4-0.57,0.7-1.28,0.83-1.97
				C719.44,180.95,718.71,178.68,716.69,177.36z"/>
			<path class="st14" d="M722.03,163.2c-1.08-0.83-2.58-1.24-3.91-0.77c-0.7,0.24-1.29,0.55-1.81,1.09
				c-0.65,0.67-1.23,1.76-1.11,2.72c0.06,0.49,0.16,0.95,0.33,1.37c0.02,0.89,0.28,1.76,0.82,2.5c0.68,0.94,1.43,1.54,2.61,1.7
				c1.02,0.14,2.31-0.12,3-0.98c0.93-1.17,1.72-2.33,1.79-3.89C723.82,165.46,723.21,164.1,722.03,163.2z"/>
			<path class="st14" d="M730.98,150.03c-1.25-0.67-2.81-0.69-4.05,0.03c-1.1,0.64-1.85,1.76-2.09,3c-0.32,0.96-0.26,2.03,0.28,2.95
				c0.78,1.34,2.58,2.16,4.1,1.67c1.39-0.45,2.41-1.56,2.6-3.02c0.03-0.23,0.04-0.45,0.03-0.67c0.24-0.35,0.4-0.76,0.45-1.19
				C732.45,151.75,731.96,150.56,730.98,150.03z"/>
			<path class="st14" d="M701.72,202.53c-0.22-0.41-0.52-0.76-0.81-1.13c-0.61-0.77-1.72-1.12-2.78-1.07
				c-0.21-0.16-0.44-0.29-0.75-0.41c-2.09-0.79-4.05,1.09-4.45,2.99c-0.4,1.87,0.24,3.73,1.64,5.03c0.67,0.63,1.48,1.07,2.37,1.3
				c1.62,0.41,3.22-0.28,4.21-1.57c0.48-0.62,0.83-1.3,0.95-2.09C702.29,204.48,702.27,203.57,701.72,202.53z"/>
			<path class="st14" d="M729.7,192.55c-1.29-0.53-2.92,0.02-3.94,0.81c-1.2,0.93-1.62,2.08-1.78,3.55
				c-0.27,2.45-0.74,4.51,0.49,6.83c0.67,1.27,1.84,1.96,3.09,2.14c0.77,1,1.71,1.84,2.72,2.39c2.41,1.3,5.81,0.23,6.47-2.63
				C738.09,199.91,734.99,194.75,729.7,192.55z"/>
			<path class="st14" d="M738.21,176.02c-0.23-1.02-1.01-1.99-1.91-2.49c-1.27-0.7-2.83-0.68-4.08,0.06
				c0.05-0.02,0.09-0.04,0.14-0.06c-0.61,0.31-1.17,0.77-1.5,1.38c-0.46,0.86-0.64,1.84-0.37,2.8c0.02,0.05,0.03,0.11,0.05,0.16
				c0.18,0.65,0.58,1.24,1.1,1.69c0.06,0.09,0.11,0.18,0.17,0.26c0.37,0.48,0.8,0.81,1.35,1.04c0.26,0.15,0.55,0.23,0.85,0.23
				c0.45,0.1,0.9,0.08,1.35-0.06c0.29-0.05,0.66-0.23,0.92-0.37c0.05-0.03,0.09-0.05,0.14-0.08c0.53-0.31,1.08-0.86,1.36-1.4
				C738.32,178.19,738.46,177.12,738.21,176.02z"/>
			<path class="st14" d="M483.49,217.32c-2.84,0.02-5,2.33-5.52,5c-0.52,2.68,0.84,6.22,3.49,7.36c0.41,0.35,0.89,0.52,1.38,0.57
				c0.21,0.18,0.44,0.35,0.67,0.5c2.1,1.36,5.17,0.04,5.76-2.34C490.35,224.08,489.13,217.29,483.49,217.32z"/>
			<path class="st14" d="M509.05,235.91c-0.73-0.95-1.79-1.45-2.99-1.5c-0.4-0.02-0.81,0.07-1.21,0.13
				c-0.75,0.13-1.66,0.89-2.01,1.54c-0.35,0.66-0.45,1.3-0.4,1.99c0,0.01-0.01,0.02-0.01,0.02c-0.01-0.09-0.02-0.17-0.03-0.26
				c0.01,0.11,0.01,0.21,0.02,0.31c-0.16,0.42-0.25,0.86-0.24,1.27c0.01,0.24,0.01,0.49,0.02,0.73c0.03,1.28,0.67,2.46,1.79,3.11
				c1.1,0.64,2.54,0.67,3.64,0c1.53-0.93,2.53-2.66,2.42-4.48C509.98,237.74,509.7,236.75,509.05,235.91z"/>
			<path class="st14" d="M529.08,241.61c-1.25,0.08-2.35,0.32-3.35,1.09c-1.15,0.89-1.83,2.19-1.81,3.65
				c-0.08,1.02,0.29,1.94,1.04,2.63c0,0-0.01,0-0.01-0.01c0.16,0.19,0.35,0.35,0.54,0.51c0.17,0.61,0.45,1.17,0.93,1.65
				c0.67,0.67,1.78,1.18,2.74,1.14c2.24-0.1,3.71-1.71,3.88-3.88c0.01-0.4,0.02-0.8,0.03-1.19c0.03-0.08,0.06-0.16,0.08-0.23
				C533.94,244.44,531.79,241.44,529.08,241.61z"/>
			<path class="st14" d="M475.94,294.3c-0.01-3.04-3.57-5.34-6.26-3.59c-0.04,0.03-0.09,0.04-0.13,0.07
				c-1.26,0.42-2.26,1.27-2.94,2.54c-0.77,1.42-1.04,2.84-0.6,4.29c0.03,0.23,0.05,0.46,0.09,0.69c0.17,0.93,0.86,1.71,1.69,2.2
				c0.09,0.36,0.19,0.72,0.29,1.07c1.22,4.33,7.89,3.51,7.88-1.07C475.95,298.44,475.95,296.37,475.94,294.3z"/>
			<path class="st14" d="M469.73,271.17c-0.03-0.07-0.07-0.12-0.1-0.18c-0.01-0.05-0.02-0.11-0.03-0.16
				c-0.11-0.25-0.21-0.5-0.32-0.76c-0.58-0.69-0.68-0.84-0.29-0.43c-0.69-1.2-2.4-1.69-3.59-0.94c0.44-0.13,0.41-0.1-0.07,0.08
				c-0.39,0.13-0.73,0.35-1.02,0.65c-0.03,0.03-0.05,0.06-0.08,0.09c-1.22,0.8-1.93,2.34-1.81,3.79c0.13,1.58,1.06,3.2,2.73,3.58
				c1.66,0.38,3.27-0.27,4.19-1.71c0.45-0.7,0.75-1.62,0.72-2.46C470.04,272.18,469.94,271.67,469.73,271.17z"/>
			<path class="st14" d="M459.55,308.66c-1.09-1.27-3.16-1.48-4.6-0.87c-1.5,0.63-2.64,2.17-2.59,3.85
				c0.02,0.59,0.11,1.16,0.26,1.72c-0.1,0.52-0.09,1.07,0.03,1.58c-0.29,1.66,0.41,3.57,1.96,4.39c0.65,0.34,1.36,0.53,2.1,0.57
				c0.92,0.04,2.34-0.47,2.94-1.22c1.17-1.47,1.98-3.08,1.93-5.02C461.53,311.72,460.8,310.11,459.55,308.66z"/>
			<path class="st14" d="M514.97,316.78c-2.27-3.58-6.95-4.84-10.59-2.5c-4.11,2.65-4.64,9.05-0.03,11.63
				c0.53,0.3,1.09,0.5,1.67,0.64c0.56,2.44,2.47,4.58,5.21,4.46c2.83-0.13,5.45-2.36,5.36-5.36
				C516.5,322.67,516.63,319.4,514.97,316.78z"/>
			<path class="st14" d="M523.01,284.26c-0.05-0.56-0.27-1.11-0.72-1.53c-0.22-0.21-0.93-0.74-0.37-0.29
				c0.31,0.25,0.28,0.23-0.09-0.06c-0.15-0.13-0.31-0.25-0.48-0.34c-0.77-0.46-1.87-0.62-2.79-0.33c-0.99,0.12-1.95,0.56-2.64,1.26
				c-0.53,0.54-0.9,1.24-1.09,1.96c-0.24,0.91-0.15,1.44,0,2.35c0.13,0.3,0.25,0.59,0.38,0.89c0.19,0.25,0.39,0.5,0.58,0.75
				c0.22,0.22,0.47,0.4,0.74,0.55c0.48,0.53,1.13,0.98,1.8,1.13c1.04,0.24,1.94,0.07,2.9-0.38c1.28-0.6,2.01-1.99,2.19-3.32
				C523.55,285.98,523.4,285.07,523.01,284.26z"/>
			<path class="st14" d="M532.2,305.65c-0.11-0.45-0.31-0.85-0.62-1.18c-0.24-0.38-0.57-0.68-0.97-0.89
				c-0.67-0.35-1.42-0.53-2.17-0.44c-0.02,0-0.04,0-0.06,0c-0.28,0.04-0.56,0.08-0.83,0.14c-0.04,0-0.09-0.01-0.13-0.01
				c-1.22,0-2.5,0.67-3.09,1.77c-0.39,0.74-0.64,1.5-0.62,2.36c0.03,1.38,0.72,2.65,1.93,3.36c0.38,0.22,0.77,0.36,1.18,0.44
				c0.05,0.02,0.11,0.04,0.15,0.06c0.39,0.11,0.85,0.16,1.26,0.15c1.11-0.05,2.18-0.47,2.95-1.29c0.78-0.82,1.14-1.82,1.22-2.93
				C532.45,306.67,532.4,306.12,532.2,305.65z"/>
			<path class="st14" d="M487.79,316.38c0-0.31-0.08-0.6-0.23-0.87c-0.08-0.29-0.23-0.54-0.44-0.76c-0.15-0.26-0.36-0.46-0.62-0.62
				c-0.33-0.3-0.72-0.51-1.17-0.61c-0.05-0.01-0.11-0.02-0.16-0.04c-0.62-0.17-1.24-0.17-1.85,0c-0.59,0.17-1.1,0.46-1.54,0.9
				c-0.43,0.44-0.73,0.95-0.9,1.54c-0.15,0.46-0.17,0.93-0.06,1.39c0.02,0.46,0.16,0.9,0.41,1.3c0.31,0.52,0.73,0.94,1.25,1.25
				c0.54,0.32,1.13,0.47,1.76,0.48c0.63,0,1.22-0.16,1.76-0.48c0.05-0.02,0.1-0.05,0.14-0.07c0.23-0.18,0.46-0.36,0.69-0.54
				c0.18-0.23,0.36-0.46,0.54-0.69c0.12-0.27,0.23-0.55,0.35-0.82C487.87,317.29,487.89,316.83,487.79,316.38z"/>
			<path class="st14" d="M500.05,297.13c-0.14-0.5-0.39-0.94-0.76-1.31c-0.37-0.37-0.81-0.62-1.31-0.76
				c-0.39-0.12-0.79-0.14-1.18-0.05c-0.39,0.02-0.76,0.14-1.1,0.35c-0.45,0.26-0.8,0.62-1.06,1.06c-0.52,0.89-0.56,2.11,0,2.99
				c0.06,0.09,0.11,0.18,0.18,0.27c0.25,0.42,0.58,0.76,1.01,1.01c0.44,0.25,0.91,0.38,1.42,0.38c0.51,0,0.98-0.13,1.42-0.38
				c0.42-0.25,0.76-0.58,1.01-1.01c0.15-0.32,0.28-0.64,0.4-0.98C500.19,298.18,500.19,297.66,500.05,297.13z"/>
			<path class="st14" d="M549.35,263.31c-0.56-0.43-1.14-0.67-1.84-0.77c-0.79-0.11-1.82-0.03-2.48,0.46
				c-0.33,0.25-0.67,0.49-1.01,0.72c-0.67,0.45-1.38,1.06-1.76,1.78c-0.43,0.81-0.52,1.57-0.64,2.48c-0.2,1.48,0.98,3.11,2.19,3.82
				c1.26,0.74,3.21,0.9,4.46,0c0.91-0.65,1.57-1.24,2.01-2.28c0.29-0.68,0.44-1.25,0.46-2l0.02-0.11
				C551.1,265.85,550.62,264.29,549.35,263.31z"/>
			<path class="st14" d="M523.4,373.43c-0.23-0.75-0.47-1.5-0.7-2.24c-0.48-1.53-1.61-2.75-3.19-3.19
				c-1.55-0.43-3.31,0.01-4.44,1.17c-0.43,0.45-0.82,0.92-1.17,1.44c-0.15,0.36-0.31,0.72-0.46,1.08c-0.19,0.6-0.22,1.21-0.08,1.81
				c0.01,0.06,0.03,0.11,0.04,0.17c-0.14,0.62-0.14,1.27,0.07,1.87c0.08,0.23,0.17,0.47,0.27,0.71c0.21,0.58,0.62,1.21,0.99,1.55
				c0.28,0.25,0.64,0.53,0.95,0.74c0.43,0.28,0.97,0.49,1.46,0.64c0.82,0.25,1.87,0.26,2.69,0.01c0.49-0.15,1.06-0.35,1.49-0.65
				c0.83-0.58,1.45-1.22,1.85-2.17C523.56,375.47,523.71,374.39,523.4,373.43z"/>
		</g>
		<g>
			<path class="st5" d="M326.11,455.14c-0.56-2.89-3.46-4.63-6.26-4.25c-0.93,0.13-1.8,0.47-2.54,0.98
				c-2.1,0.88-3.48,3.01-3.35,5.31c0.13,2.36,1.56,5.01,4.1,5.46c0.86,0.15,1.79,0.07,2.58-0.3c0.48,0.08,0.97,0.06,1.46-0.1
				C325.1,461.26,326.71,458.2,326.11,455.14z"/>
			<path class="st5" d="M330.55,444.23c-0.09-0.39-0.27-0.73-0.54-1.02c-0.21-0.33-0.49-0.58-0.84-0.77
				c-0.34-0.22-0.72-0.34-1.12-0.36c-0.4-0.09-0.8-0.07-1.2,0.05c-0.51,0.14-0.95,0.4-1.32,0.77c-0.2,0.2-0.38,0.42-0.52,0.66
				c-0.01,0.01-0.01,0.02-0.02,0.04c-0.03,0.05-0.29,0.67-0.31,0.73c0,0.02-0.01,0.03-0.01,0.05c-0.03,0.1-0.11,0.7-0.11,0.81
				c0,0.16,0.03,0.3,0.06,0.47c0.07,0.52,0.1,0.71,0.4,1.24c0.15,0.27,0.35,0.52,0.57,0.74c0.27,0.29,0.58,0.49,0.95,0.61
				c0.35,0.18,0.73,0.27,1.14,0.25c0.26-0.04,0.52-0.07,0.79-0.11c0.38-0.09,0.72-0.27,1-0.53c0.22-0.13,0.4-0.31,0.53-0.53
				c0.26-0.29,0.44-0.62,0.53-1c0.04-0.26,0.07-0.52,0.11-0.79c0-0.07-0.02-0.13-0.03-0.19C330.66,445,330.66,444.61,330.55,444.23z
				"/>
			<path class="st5" d="M332.19,421.29c-1.11-0.87-2.76-1.44-4.07-0.52c-2.36,1.65-2.99,4.79-0.92,6.97
				c0.64,1.97,2.1,3.82,3.42,5.09c1.63,1.56,4.58,0.95,5.14-1.36C336.71,427.65,335.29,423.7,332.19,421.29z"/>
			<path class="st5" d="M362.03,434.92c-0.17-0.62-0.52-1.21-0.99-1.65c-0.43-0.4-0.88-0.69-1.45-0.84
				c-0.48-0.13-0.92-0.13-1.38-0.05c-0.46,0.03-0.92,0.15-1.41,0.43c-0.59,0.34-1.04,0.81-1.41,1.37c-0.55,0.85-0.55,1.89-0.36,2.85
				c0.17,0.81,0.62,1.5,1.27,2.01c0.86,0.66,2,0.94,3.07,0.66c0.65-0.18,1.21-0.57,1.6-1.12
				C361.98,437.66,362.39,436.23,362.03,434.92z"/>
			<path class="st5" d="M388.24,438.01c-0.2-0.75-0.7-1.53-1.27-2.05c-0.45-0.41-0.95-0.71-1.48-0.91
				c-0.52-0.35-1.15-0.59-1.78-0.57c-0.91,0.04-1.63,0.37-2.32,0.96c-0.3,0.25-0.53,0.57-0.72,0.91c-0.07,0.09-0.15,0.18-0.22,0.28
				c-0.46,0.65-0.58,1.85-0.34,2.59c0.18,0.56,0.48,1.05,0.87,1.45c0.5,0.77,1.17,1.4,1.99,1.9c0.75,0.45,1.9,0.63,2.74,0.36
				c0.82-0.27,1.76-0.81,2.13-1.64c0.35-0.79,0.55-1.18,0.56-2.05C388.42,438.83,388.35,438.41,388.24,438.01z"/>
			<path class="st5" d="M357.81,462.45c-0.56-2.09-1.95-3.51-3.63-4.78c-0.98-0.74-2.49-0.65-3.55-0.2
				c-0.74,0.31-1.25,0.78-1.65,1.35c-0.61,0.6-0.99,1.45-1.1,2.44c-0.12,1.13,0.03,2.25,0.37,3.31c0.13,0.47,0.3,0.92,0.5,1.36
				c0.19,0.41,0.41,0.77,0.67,1.09c0.48,0.77,1.04,1.49,1.65,2.14c1.74,1.84,4.59,1.18,5.88-0.76
				C358.09,466.67,358.34,464.42,357.81,462.45z"/>
			<path class="st5" d="M379.99,462.14c-0.2-0.84-0.78-1.6-1.53-2.01c-0.87-0.48-1.79-0.56-2.74-0.33c-0.31,0.07-0.65,0.24-0.94,0.4
				c-0.29,0.16-0.58,0.41-0.82,0.65c-0.3,0.3-0.56,0.69-0.76,1.11c-0.2,0.3-0.36,0.62-0.46,0.98c-0.15,0.47-0.17,0.95-0.06,1.42
				c0.02,0.47,0.16,0.92,0.42,1.32c0.32,0.54,0.74,0.96,1.28,1.28c0.33,0.15,0.66,0.34,1.02,0.41c0.85,0.18,1.84,0.15,2.59-0.34
				c0.74-0.48,1.31-1.15,1.55-2.01c0.01-0.03,0.02-0.06,0.03-0.09c-0.07,0.17-0.15,0.35-0.22,0.52c0.11-0.25,0.2-0.49,0.26-0.74
				c0.06-0.08,0.13-0.16,0.17-0.26c0.07-0.18,0.15-0.35,0.22-0.53c0.05-0.2,0.08-0.4,0.08-0.6
				C380.14,462.92,380.11,462.52,379.99,462.14z"/>
			<path class="st5" d="M344.87,487c0.02-0.74-0.08-1.51-0.3-2.31c-0.69-2.46-3.27-3.18-5.4-2.2c-2.55,1.17-4.12,4.61-2.68,7.17
				c0.03,1.12,0.38,2.19,1.31,2.91c1.03,0.8,2.35,0.83,3.55,0.44c1.54-0.5,2.29-1.76,3.22-2.97
				C345.18,489.15,345.22,488.02,344.87,487z"/>
			<path class="st5" d="M326.81,472.62c-0.12-0.11-0.26-0.2-0.4-0.3c-0.02-0.11-0.03-0.21-0.05-0.32c0-0.02,0-0.05,0-0.08
				c-0.05-0.77-0.3-1.38-0.6-2.09c-0.96-2.25-4.29-2.25-5.81-0.75c-2.06,2.04-2.87,5.16-2.08,7.97c1.11,3.94,6.64,3.94,8.94,1.14
				C328.11,476.6,328.48,474.16,326.81,472.62z"/>
			<path class="st5" d="M378.26,481.18c-1.39-1.27-3.28-1.39-4.95-0.69c-0.32,0.14-0.63,0.33-0.92,0.55
				c-0.51,0.25-0.96,0.63-1.26,1.15c-0.22,0.39-0.38,0.81-0.49,1.23c-0.16,0.46-0.24,0.94-0.23,1.42c0.03,0.99,0.42,2.07,1.16,2.8
				c0.79,1.03,2.03,1.88,3.28,2.07c0.84,0.13,1.57,0.16,2.38-0.18c0.76-0.32,1.27-0.8,1.75-1.49c0.6-0.86,0.9-2.08,0.83-3.12
				C379.71,483.63,379.24,482.09,378.26,481.18z"/>
		</g>
		<g>
			<path class="st15" d="M139.92,124.61c-1.9-0.4-3.98,0.54-4.48,2.55c0.22-0.45,0.2-0.4-0.04,0.15c-0.1,0.19-0.18,0.39-0.23,0.6
				c-0.14,0.48-0.18,0.99-0.2,1.49c-0.02,0.76,0.09,1.56,0.23,2.3c0.24,1.26,0.78,2.52,1.52,3.56c2.01,2.84,5.91,2.3,7.12-0.93
				c0.24-0.64,0.31-1.3,0.27-1.95C145.14,129.19,143.45,125.36,139.92,124.61z"/>
			<path class="st15" d="M163.17,145.87c-0.45-1.5-1.51-2.64-2.82-3.31c-1.01-1.43-2.47-2.55-4.24-2.98
				c-2.22-0.54-4.41,0.7-5.08,2.89c-0.85,2.74-1.1,5.61,0.52,8.13c1.79,2.78,5.5,4.22,8.55,2.56
				C162.68,151.74,164.04,148.73,163.17,145.87z"/>
			<path class="st15" d="M163.89,120.38c0.72-1.5,0.74-3.12-0.32-4.49c-1.01-1.31-2.64-1.83-4.25-1.45
				c-0.46,0.11-0.91,0.22-1.36,0.36c-0.93,0.04-1.81,0.42-2.29,1.26c-0.69,0.63-1.16,1.44-1.42,2.33c-0.73,0.96-1.24,2.04-0.69,3.3
				c0.52,1.19,1.52,1.61,2.62,1.68c0.65,1.35,1.95,2.43,3.53,2.36c1.64-0.07,3.38-1.14,3.74-2.85l0.33-1.59
				c0.04-0.21,0.09-0.42,0.13-0.64C163.97,120.47,164.28,119.55,163.89,120.38z"/>
			<path class="st15" d="M113.58,129.05c-0.29-0.89-0.85-1.8-1.72-2.23c-0.43-0.22-0.88-0.44-1.35-0.58
				c-0.74-0.22-1.66-0.24-2.41-0.03c-0.64,0.18-1.28,0.56-1.76,1.03c-0.28,0.27-0.54,0.58-0.72,0.92c-0.03,0.05-0.04,0.1-0.06,0.15
				c-0.34,0.38-0.62,0.83-0.71,1.32c-0.15,0.83-0.2,1.31,0,2.14c0.09,0.39,0.25,0.77,0.45,1.12c0.71,1.22,2.05,2.07,3.48,2.05
				c1.96-0.03,3.62-1.27,4.42-3.01c0.27-0.43,0.42-0.89,0.44-1.39C113.76,130.05,113.74,129.55,113.58,129.05z"/>
			<path class="st15" d="M174.11,88.17c-1.11-1.84-3.72-2.68-5.61-1.47c-1.61,1.02-2.79,2.74-2.82,4.7
				c-0.03,1.64,0.59,3.21,1.75,4.38c0.32,0.33,0.7,0.59,1.11,0.79c0.64,0.55,1.41,0.94,2.25,1.05c1.3,0.18,2.34,0.13,3.41-0.7
				c0.97-0.75,1.53-1.83,1.54-3.08C175.77,91.79,175.15,89.9,174.11,88.17z"/>
			<path class="st15" d="M178.2,104.03c-0.3-0.76-0.7-1.5-1.46-1.9c-0.64-0.34-1.31-0.47-2.03-0.38c-0.67,0.09-1.36,0.36-1.83,0.88
				c-0.56,0.61-0.95,1.39-0.93,2.25c0.02,0.81,0.22,1.64,0.74,2.26c0.17,0.27,0.4,0.53,0.61,0.76c0.69,0.74,1.84,1,2.8,0.74
				c1.02-0.28,1.66-1.04,2.01-2.01c0.08-0.22,0.13-0.45,0.16-0.69C178.43,105.32,178.45,104.66,178.2,104.03z"/>
			<path class="st15" d="M197.19,86.23c0-1.32-0.74-2.84-1.97-3.44c-1.57-0.77-3.56-1.12-5.13-0.1c-1.5,0.97-2.35,2.53-2.47,4.29
				c-0.04,0.58,0.08,1.12,0.31,1.61c-0.01,0.66,0.14,1.32,0.48,1.87c0.64,1.04,1.54,1.77,2.72,2.12c1.54,0.46,3.11-0.16,4.22-1.23
				c1.22-1.18,1.79-2.79,1.79-4.43C197.16,86.69,197.19,86.46,197.19,86.23z"/>
			<path class="st15" d="M158.17,102.49c-0.17-0.59-0.46-1.1-0.89-1.53c-0.23-0.18-0.47-0.36-0.7-0.54
				c-0.54-0.31-1.13-0.47-1.75-0.47c-0.48-0.02-0.93,0.08-1.34,0.3c-0.43,0.14-0.8,0.38-1.12,0.72c-0.34,0.31-0.58,0.69-0.72,1.12
				c-0.22,0.41-0.32,0.86-0.3,1.34c0.04,0.31,0.08,0.62,0.12,0.92c0.17,0.59,0.46,1.1,0.89,1.53c0.23,0.18,0.47,0.36,0.7,0.54
				c0.54,0.31,1.13,0.47,1.75,0.47c0.48,0.02,0.93-0.08,1.34-0.3c0.43-0.14,0.8-0.38,1.12-0.72c0.34-0.31,0.58-0.69,0.72-1.12
				c0.22-0.41,0.32-0.86,0.3-1.34L158.17,102.49z"/>
			<path class="st15" d="M226.85,71.26c-0.95-1.17-3.11-1.35-4.33-0.56c-0.59,0.38-1.04,0.9-1.34,1.49
				c-0.32,0.15-0.63,0.36-0.94,0.59c-1.57,1.23-1.66,3.64-0.71,5.26c0.42,0.71,1.04,1.3,1.75,1.7c1.27,0.71,2.79,0.55,4.03-0.14
				c1.28-0.72,2.23-1.94,2.64-3.35c0.17-0.58,0.24-1.2,0.26-1.8C228.24,73.13,227.63,72.21,226.85,71.26z"/>
			<path class="st15" d="M250.6,78.96c-0.02-0.42-0.14-0.82-0.38-1.18c-0.2-0.37-0.47-0.67-0.82-0.89
				c-0.31-0.28-0.67-0.47-1.08-0.57c-0.32-0.07-0.66-0.1-0.99-0.09c-0.17-0.06-0.35-0.09-0.53-0.1c-0.24-0.06-0.47-0.06-0.71,0
				c-0.36,0.02-0.69,0.12-0.99,0.32c-0.24,0.12-0.46,0.32-0.66,0.49c-0.05,0.04-0.09,0.08-0.13,0.13c-0.41,0.47-0.66,0.89-0.85,1.49
				c-0.06,0.19-0.11,0.61-0.11,0.81c0,0.03,0,0.06,0,0.09c0,0.22,0.06,0.61,0.11,0.82c0.01,0.03,0.01,0.06,0.02,0.09
				c0.06,0.21,0.21,0.55,0.31,0.75c0.02,0.03,0.03,0.06,0.05,0.08c0.24,0.39,0.51,0.67,0.86,0.94c0.36,0.28,0.67,0.45,1.12,0.6
				c0.18,0.06,0.36,0.07,0.56,0.09c0.21,0.03,0.37,0.07,0.57,0.05c0.31-0.02,0.65-0.05,0.95-0.14c0.18-0.05,0.36-0.14,0.52-0.21
				c0.18-0.07,0.35-0.13,0.51-0.23c0.25-0.16,0.52-0.37,0.73-0.58c0.42-0.43,0.69-0.93,0.87-1.5
				C250.68,79.8,250.7,79.38,250.6,78.96z"/>
			<path class="st15" d="M243.97,64.01c-0.23-1.03-1.01-1.8-1.98-2.14c-1.12-0.4-2.37,0.02-3.2,0.81c-0.6,0.44-1.06,1.08-1.26,1.8
				c-0.16,0.59-0.16,1.18,0,1.76c0.16,0.56,0.44,1.05,0.85,1.46c0.54,0.67,1.53,0.93,2.35,0.97c1.04,0.05,1.99-0.52,2.6-1.31
				c0.29-0.32,0.49-0.7,0.59-1.13c0.09-0.35,0.12-0.69,0.11-1.04C244.07,64.82,244.06,64.42,243.97,64.01z"/>
			<path class="st15" d="M278.48,72.22c-0.33-2.11-1.55-4.21-3.22-5.53c-0.39-0.31-0.85-0.57-1.33-0.76
				c-0.22-0.14-0.46-0.26-0.71-0.36c-1.98-0.83-4.05-0.59-5.76,0.73c-1.75,1.35-2.44,3.92-1.08,5.8c0.56,0.78,1.26,1.21,2.03,1.31
				c0.11,0.36,0.24,0.73,0.39,1.1c0.65,1.53,2.32,2.05,3.85,1.82c0.72,0.28,1.48,0.47,2.26,0.58c1.11,0.15,2.27-0.63,2.91-1.46
				C278.59,74.45,278.66,73.44,278.48,72.22z"/>
			<path class="st15" d="M272.9,90.47c-0.61-2.44-3.13-3.97-5.57-3.4c-0.86,0.2-1.7,0.66-2.33,1.29c-0.64,0.65-1.07,1.39-1.22,2.22
				v-0.08c-0.12,0.29-0.18,0.61-0.22,0.95c-0.18,0.57-0.2,1.22-0.07,1.84c-0.02,0.16-0.03,0.32-0.03,0.48
				c0,1.16,0.65,2.45,1.72,2.99c2.08,1.05,4.43,0.74,6.11-0.91C272.68,94.49,273.39,92.4,272.9,90.47z"/>
			<path class="st15" d="M293.79,92.21c-0.12-0.29-0.24-0.58-0.36-0.86c-0.23-0.42-0.54-0.76-0.93-1.01
				c-0.23-0.22-0.49-0.38-0.8-0.46c-0.43-0.23-0.89-0.33-1.39-0.31c-0.32,0.04-0.64,0.09-0.96,0.13c-0.61,0.17-1.14,0.48-1.59,0.93
				c-0.02,0.02-0.04,0.03-0.06,0.05c-0.45,0.45-0.76,0.99-0.93,1.6c-0.04,0.32-0.09,0.64-0.13,0.96c0,0.65,0.17,1.27,0.5,1.83
				c0.23,0.42,0.54,0.76,0.93,1.02c0.35,0.32,0.76,0.54,1.23,0.65c0.48,0.15,0.96,0.17,1.45,0.06c0.48-0.02,0.93-0.17,1.35-0.43
				c0.55-0.32,0.98-0.76,1.3-1.3c0.01-0.02,0.02-0.05,0.03-0.07c0.26-0.41,0.41-0.86,0.43-1.34
				C293.96,93.17,293.94,92.69,293.79,92.21z"/>
			<path class="st15" d="M317.14,83.68c-2.4-1.55-5.14-3.88-8.02-4.29c-3.61-0.51-6.76,2.52-5.63,6.21
				c0.53,1.74,2.08,3.26,3.24,4.58c1.31,1.49,2.46,2.67,4.53,2.96c0.62,0.09,1.23,0.03,1.79-0.13c0.95,0.45,1.94,0.85,2.96,1.2
				c1.7,0.58,3.58-0.4,4.48-1.82C322.73,88.83,320.06,85.58,317.14,83.68z"/>
			<path class="st15" d="M310.4,108.81c-0.18-0.84-0.61-1.65-1.21-2.26c-0.25-0.26-0.54-0.49-0.84-0.68
				c-0.35-0.32-0.77-0.57-1.16-0.74c-0.78-0.33-1.59-0.39-2.42-0.19c-2.22,0.55-3.65,2.87-2.73,5.05c0.19,0.44,0.27,0.69,0.67,1.06
				c0.02,0.01,0.03,0.03,0.05,0.04c0.01,0.01,0,0.01,0.01,0.02c0.24,0.18,0.47,0.37,0.71,0.55c-0.05,0.61,0.07,1.24,0.41,1.73
				c0.21,0.31,0.44,0.6,0.69,0.89c1.27,1.5,4.04,1.06,4.92-0.63C310.3,112.08,310.77,110.55,310.4,108.81z"/>
			<path class="st15" d="M290.4,126.39c-0.02-0.27-0.04-0.54-0.07-0.82c-0.18-1.35-0.65-2.54-0.96-3.85
				c-0.38-1.6-1.89-2.77-3.47-2.99c-1.7-0.23-3.22,0.57-4.15,1.99c-0.72,1.09-1.03,2.29-1.21,3.57c-0.22,1.62,0.03,2.84,0.78,4.32
				c0.32,0.64,0.86,1.12,1.49,1.45c0.33,1.3,1.23,2.43,2.64,2.75c1.85,0.42,4.38-0.56,4.73-2.69c0.08-0.5,0.14-0.98,0.19-1.47
				C290.81,127.98,290.89,127.08,290.4,126.39z"/>
			<path class="st15" d="M283.93,163.31c0.21-1.07,0.09-2.19-0.57-3.04c-0.48-0.63-0.92-1.11-1.67-1.43
				c-0.7-0.29-1.54-0.42-2.28-0.18c-0.58,0.19-1.1,0.51-1.52,0.92c-0.01-0.01-0.02-0.01-0.03-0.02c-0.1,0.12-0.19,0.24-0.28,0.35
				c-0.01,0.01-0.02,0.02-0.03,0.03c-0.32,0.42-0.58,0.84-0.75,1.37c-0.21,0.65-0.14,1.31-0.05,1.96c0.06,0.41,0.17,0.79,0.31,1.16
				c-0.1,0.5-0.1,1.03,0.07,1.52c0.55,1.66,2.14,2.73,3.89,2.49c1.84-0.25,3.11-1.92,3.13-3.74
				C284.16,164.24,284.07,163.76,283.93,163.31z"/>
			<path class="st15" d="M292.63,147.25c-0.09-0.36-0.21-0.74-0.4-1.05c-0.18-0.31-0.45-0.59-0.7-0.86c-1-1.06-2.84-1.03-3.85,0
				c-0.17,0.18-0.32,0.35-0.47,0.55c-0.31,0.41-0.51,0.87-0.64,1.36c-0.1,0.38-0.16,0.79-0.18,1.19c-0.02,0.49,0.08,0.91,0.27,1.35
				c0.08,0.27,0.21,0.51,0.41,0.71c0.1,0.13,0.2,0.26,0.3,0.39c0.45,0.56,1.52,0.95,2.22,0.92c0.79-0.04,1.69-0.29,2.22-0.92
				c0.19-0.22,0.4-0.47,0.56-0.71c0.29-0.45,0.45-1.14,0.43-1.68C292.79,148.09,292.73,147.66,292.63,147.25z"/>
			<path class="st15" d="M293.32,173.82c-0.13-0.01-0.27,0.01-0.4,0.03c-0.37-0.08-0.76-0.07-1.12,0.06
				c-0.43,0.15-0.77,0.34-1.07,0.58c-0.01,0.01-0.03,0.01-0.04,0.02c-0.87,0.41-1.5,1.58-1.45,2.53c0.07,1.38,0.77,2.82,2.03,3.5
				c1.43,0.77,3.24,0.61,4.39-0.6C297.7,177.76,296.34,173.97,293.32,173.82z"/>
			<path class="st15" d="M187.46,185.32c-1.14-0.94-3.12-1.62-4.47-0.58c-1.22,0.94-2.08,2.11-2.36,3.47
				c-0.05,0.12-0.1,0.24-0.14,0.36c-0.89,2.75,0.64,5.62,2.44,7.63c1.22,1.36,3.91,1.44,5.11,0
				C190.65,193.07,190.82,188.09,187.46,185.32z"/>
			<path class="st15" d="M216.08,220.12c-1-1.63-3.24-2.36-4.95-1.36c-1.55-0.05-3.02,0.86-3.45,2.45c-0.82,3.03,1.13,6.4,3.77,7.84
				c1.04,0.57,2.16,0.64,3.24,0.18c1.11-0.47,1.68-1.26,2.11-2.36C217.65,224.71,217.28,222.09,216.08,220.12z"/>
			<path class="st15" d="M215.98,201.39c-0.01-0.07-0.02-0.14-0.03-0.21c-0.1-0.44-0.31-0.82-0.6-1.15
				c-0.45-0.59-1.03-0.99-1.75-1.21c-0.97-0.3-2.17-0.24-3.03,0.3c-0.98,0.61-1.61,1.63-1.61,2.8c0,0.59,0.15,1.13,0.44,1.64
				c0.22,0.38,0.52,0.68,0.86,0.93c0.18,0.33,0.41,0.64,0.71,0.9c0.57,0.51,1.33,0.91,2.12,0.88c0.81-0.04,1.52-0.32,2.12-0.88
				c0.69-0.64,1.15-1.68,1.09-2.63C216.28,202.26,216.17,201.81,215.98,201.39z"/>
			<path class="st15" d="M198.72,210.34c-0.43-0.43-0.94-0.72-1.52-0.88c-0.61-0.16-1.22-0.16-1.83,0
				c-0.19,0.04-0.37,0.07-0.56,0.11c-0.27,0.11-0.53,0.22-0.8,0.34c-0.39,0.21-0.7,0.5-0.94,0.86c-0.43,0.56-0.75,1.29-0.72,2.02
				c0.03,0.59,0.18,1.16,0.46,1.68c0.21,0.39,0.5,0.7,0.86,0.94c0.32,0.29,0.7,0.49,1.13,0.6c0.19,0.03,0.37,0.06,0.56,0.1
				c0.61,0.16,1.22,0.16,1.83,0c0.58-0.16,1.09-0.46,1.52-0.88c0.62-0.67,1.01-1.5,1.01-2.43
				C199.73,211.89,199.35,210.97,198.72,210.34z"/>
			<path class="st15" d="M248.23,199.18c-0.5-1.74-2.11-2.95-3.91-2.98c-2.36-0.04-4.82,1.31-5.61,3.53
				c-0.16,0.35-0.3,0.7-0.39,1.07c-0.22,0.94-0.14,1.81,0.21,2.61c0.25,0.97,0.8,1.72,1.72,2.4c0.21,0.16,0.46,0.26,0.73,0.32
				c0.31,0.33,0.67,0.62,1.09,0.84c1.85,0.98,4.31,0.5,5.38-1.41C248.54,203.61,248.85,201.33,248.23,199.18z"/>
			<path class="st15" d="M241.03,224.54c-0.03-0.17-0.07-0.33-0.11-0.5c0.08-0.76-0.05-1.56-0.47-2.11
				c-0.26-0.35-0.5-0.73-0.83-1.01c-1.32-1.13-3.11-1.38-4.54-0.27c-1.44,1.12-1.62,2.87-0.89,4.46c0.05,0.13,0.12,0.25,0.2,0.37
				c0.16,0.26,0.37,0.51,0.61,0.74c0.14,0.81,0.53,1.56,1.16,2.15c1.85,1.73,5.04,0.53,5.04-2.09
				C241.21,225.7,241.13,225.11,241.03,224.54z"/>
			<path class="st15" d="M272.59,190.71c-0.04-1.65-0.52-3.29-1.49-4.65c-0.89-1.24-2.11-1.98-3.69-1.77
				c-1.31,0.18-2.86,1.23-3.08,2.65c-0.11,0.69-0.16,1.31-0.17,1.94c-0.2,0.64-0.33,1.3-0.37,1.99c-0.14,2.1,0.55,3.8,1.84,5.42
				c1.51,1.89,4.55,1.04,5.66-0.73c0.38-0.61,0.66-1.27,0.88-1.95C272.66,192.75,272.85,191.74,272.59,190.71z"/>
		</g>
		<g>
			<path class="st2" d="M175.47,286.97c-1.07-1.14-3.07-1.4-4.4-0.57c-1.3,0.81-2.4,2.19-3,3.71c-0.83,0.42-1.46,1.1-1.8,2.14
				c-1.55,4.71,4.07,8.3,8.14,6.58C179.36,296.73,178.59,290.27,175.47,286.97z"/>
			<path class="st2" d="M184.2,273.72c0-0.01-0.01-0.02-0.01-0.02c-0.18-0.33-0.45-0.65-0.77-0.84c-0.05-0.03-0.1-0.06-0.15-0.08
				c-0.8-0.46-1.79-0.46-2.59,0c-0.33,0.19-0.6,0.43-0.84,0.69c-0.4,0.27-0.75,0.62-1,1.07c-0.72,1.31-0.77,3.11,0.45,4.16
				c0.25,0.21,0.52,0.38,0.79,0.5c0.04,0.04,0.07,0.09,0.11,0.14c0.53,0.52,1.36,0.91,2.12,0.88c0.84-0.04,1.48-0.35,2.12-0.88
				c0.79-0.66,1.2-1.85,1.14-2.86C185.51,275.36,185.02,274.38,184.2,273.72z"/>
			<path class="st2" d="M196.8,320.07c-0.35-1.42-1.1-2.79-2.13-3.84c-1.86-1.89-3.81-1.43-6.08-0.84
				c-1.25,0.32-2.41,1.41-2.69,2.69c-0.61,2.75-0.69,7.56,2.14,9.15c0.53,0.7,1.19,1.31,1.98,1.81c1.4,0.88,3.36,0.55,4.5-0.58
				C196.72,326.3,197.54,323.06,196.8,320.07z"/>
			<path class="st2" d="M205.52,294.35c0-0.02,0.01-0.04,0.01-0.06C205.52,294.31,205.52,294.33,205.52,294.35
				c0.04-0.7-0.06-1.36-0.36-2.07c-0.5-1.2-1.57-2.14-2.86-2.42c-1.22-0.26-2.59,0.01-3.54,0.83c-0.08,0.02-0.16,0.05-0.24,0.08
				c-0.59,0.25-1,0.72-1.21,1.28c-0.64,0.87-0.84,1.96-0.52,3.11c0.16,0.59,0.41,1.16,0.63,1.73c0.39,1.05,0.96,1.81,2.02,2.26
				c0.95,0.4,2.21,0.45,3.1-0.18c1.46-1.04,2.53-2.18,2.88-3.88c-0.01,0.06-0.02,0.11-0.02,0.17
				C205.46,294.94,205.5,294.64,205.52,294.35z"/>
			<path class="st2" d="M219.75,347.73c-0.07-0.55-0.16-1.08-0.33-1.61c-0.16-0.41-0.33-0.82-0.51-1.23
				c-0.19-0.42-0.22-0.47-0.09-0.16c-0.51-1.27-1.26-2.27-2.65-2.65c-1.18-0.32-2.89-0.06-3.69,0.98c-1.12,1.45-2.07,2.93-2,4.83
				c0.05,1.32,0.67,2.33,1.55,2.96c0.03,0.14,0.07,0.28,0.12,0.42c0.59,1.56,1.78,2.79,3.56,2.79c1.7,0,3.11-1.18,3.71-2.7
				C219.86,350.21,219.9,348.96,219.75,347.73z"/>
		</g>
		<g>
			<path class="st15" d="M12.4,252.23c-2.01-0.66-3.76,0.79-4.45,2.53c-1.03,2.57-1.28,5.58,0.53,7.66
				c0.37,0.51,0.76,0.89,1.29,1.29c0.22,0.17,0.47,0.26,0.71,0.31c0.05,0.1,0.09,0.21,0.14,0.31c0.85,1.96,3.58,1.83,4.91,0.63
				C19.79,261.15,17.47,253.91,12.4,252.23z"/>
			<path class="st15" d="M31.9,283.67c-0.05-0.38-0.16-0.76-0.31-1.11c-0.05-0.25-0.09-0.49-0.14-0.74
				c-0.05-0.24-0.09-0.48-0.14-0.71c0.02-0.01,0.03-0.07,0.04-0.24c0.1-1.52-1.05-2.97-2.37-3.53c-1.49-0.63-3.02-0.25-4.21,0.8
				c-1.55,1.36-2.18,3.83-1.4,5.74c0.44,1.07,1.13,1.92,2.06,2.36c0.55,0.87,1.42,1.47,2.49,1.61c1.26,0.17,2.92-0.41,3.48-1.67
				C31.79,285.35,32.02,284.58,31.9,283.67z"/>
			<path class="st15" d="M18.26,292.12c-0.73-0.87-2-1.15-3.06-1c-1.22,0.16-1.94,0.79-2.66,1.74c-0.11,0.15-0.2,0.3-0.28,0.47
				l0.03-0.03c-0.78,1.19-0.97,2.73-0.57,4.15c0.5,1.77,1.89,3.04,3.64,3.54c1.41,0.4,2.94-0.17,3.82-1.3
				c0.4-0.52,0.63-1.07,0.72-1.72c0.04-0.31,0.05-0.68,0.01-1.04C20.11,295.15,19.4,293.48,18.26,292.12z"/>
			<path class="st15" d="M51.32,288.99c0-0.02,0-0.04,0-0.05c-0.01,0.06-0.02,0.11-0.02,0.17c0.04-0.54-0.02-1.06-0.25-1.6
				c-0.28-0.66-0.75-1.27-1.39-1.63c-0.4-0.22-0.83-0.41-1.27-0.5c-0.29-0.06-0.52-0.08-0.73-0.1c-0.69-0.15-1.43-0.15-2.02,0.01
				c-1.07,0.29-1.93,1.08-2.49,2.01c-0.83,1.38-0.63,3.46,0.59,4.58c0.48,0.44,1.04,0.77,1.67,0.97c0.83,0.27,2.18,0.13,2.91-0.38
				c0.18-0.13,0.36-0.24,0.54-0.38c0.32-0.07,0.62-0.2,0.9-0.41c-0.03,0.01-0.06,0.02-0.09,0.03
				C50.65,291.17,51.43,290.17,51.32,288.99z"/>
			<path class="st15" d="M20.32,343.58c-0.81-2.57-3.3-4.88-6.12-4.8c-3.51,0.09-6.3,3.53-5.68,6.94c0.3,1.65,1.62,3.07,3.23,3.55
				c0.62,0.71,1.35,1.35,2.09,1.91c1.38,1.04,3.65,0.51,4.79-0.62C20.43,348.77,21.08,345.99,20.32,343.58z"/>
			<path class="st15" d="M36.05,367.34c-0.14-0.42-0.34-0.82-0.62-1.21c-0.41-0.56-0.84-1.09-1.45-1.45
				c-0.79-0.46-1.69-0.6-2.58-0.48c-1.58,0.21-2.92,1.34-3.36,2.9c-0.07,0.24-0.1,0.48-0.18,0.72l0.42-0.98
				c-0.36,0.83-0.87,2-0.78,2.94c0.09,0.97,0.35,1.96,1.1,2.66c0.19,0.15,0.38,0.29,0.57,0.44c0.26,0.3,0.55,0.58,0.92,0.79
				c1.04,0.6,2.35,0.83,3.53,0.49c1.46-0.42,2.63-1.49,3.05-2.98C37.02,369.86,36.73,368.49,36.05,367.34z"/>
		</g>
	</g>
</g>
</svg>
