<svg width="36" height="36" viewBox="0 0 36 36" fill="none" xmlns="http://www.w3.org/2000/svg">
<g clip-path="url(#clip0_12_212)">
<path d="M18 28.5C18.3979 28.5 18.7794 28.658 19.0607 28.9393C19.342 29.2206 19.5 29.6022 19.5 30V31.5C19.5 31.8978 19.342 32.2794 19.0607 32.5607C18.7794 32.842 18.3979 33 18 33C17.6022 33 17.2207 32.842 16.9394 32.5607C16.6581 32.2794 16.5 31.8978 16.5 31.5V30C16.5 29.6022 16.6581 29.2206 16.9394 28.9393C17.2207 28.658 17.6022 28.5 18 28.5ZM27.546 25.425L28.6065 26.4855C28.8798 26.7684 29.031 27.1473 29.0276 27.5406C29.0241 27.9339 28.8664 28.3101 28.5883 28.5882C28.3102 28.8663 27.9339 29.0241 27.5406 29.0275C27.1474 29.0309 26.7684 28.8797 26.4855 28.6065L25.425 27.546C25.1518 27.2631 25.0006 26.8842 25.004 26.4909C25.0075 26.0976 25.1652 25.7214 25.4433 25.4433C25.7214 25.1652 26.0976 25.0074 26.4909 25.004C26.8842 25.0006 27.2631 25.1518 27.546 25.425ZM8.45405 25.425C8.72398 25.156 9.0862 24.9998 9.46712 24.9882C9.84805 24.9765 10.2191 25.1103 10.505 25.3624C10.7908 25.6144 10.97 25.9658 11.0061 26.3452C11.0423 26.7246 10.9327 27.1035 10.6995 27.405L10.575 27.546L9.51455 28.6065C9.24461 28.8755 8.8824 29.0317 8.50147 29.0433C8.12055 29.055 7.74948 28.9212 7.46363 28.6691C7.17778 28.4171 6.99859 28.0657 6.96245 27.6863C6.92631 27.3069 7.03593 26.928 7.26905 26.6265L7.39355 26.4855L8.45405 25.425ZM18 9C20.387 9 22.6762 9.94821 24.364 11.636C26.0518 13.3239 27 15.6131 27 18C27 20.3869 26.0518 22.6761 24.364 24.364C22.6762 26.0518 20.387 27 18 27C15.6131 27 13.3239 26.0518 11.6361 24.364C9.94826 22.6761 9.00005 20.3869 9.00005 18C9.00005 15.6131 9.94826 13.3239 11.6361 11.636C13.3239 9.94821 15.6131 9 18 9ZM6.00005 16.5C6.38237 16.5004 6.7501 16.6468 7.0281 16.9093C7.3061 17.1717 7.4734 17.5304 7.4958 17.9121C7.51821 18.2938 7.39404 18.6696 7.14865 18.9627C6.90326 19.2559 6.55519 19.4443 6.17555 19.4895L6.00005 19.5H4.50005C4.11773 19.4996 3.75 19.3532 3.47199 19.0907C3.19399 18.8283 3.02669 18.4696 3.00429 18.0879C2.98188 17.7062 3.10606 17.3304 3.35144 17.0373C3.59683 16.7441 3.9449 16.5557 4.32455 16.5105L4.50005 16.5H6.00005ZM31.5 16.5C31.8979 16.5 32.2794 16.658 32.5607 16.9393C32.842 17.2206 33 17.6022 33 18C33 18.3978 32.842 18.7794 32.5607 19.0607C32.2794 19.342 31.8979 19.5 31.5 19.5H30C29.6022 19.5 29.2207 19.342 28.9394 19.0607C28.6581 18.7794 28.5 18.3978 28.5 18C28.5 17.6022 28.6581 17.2206 28.9394 16.9393C29.2207 16.658 29.6022 16.5 30 16.5H31.5ZM7.39355 7.3935C7.65184 7.13523 7.99549 6.98009 8.36003 6.95717C8.72456 6.93424 9.08494 7.04512 9.37355 7.269L9.51455 7.3935L10.575 8.454C10.8441 8.72394 11.0003 9.08615 11.0119 9.46708C11.0235 9.848 10.8897 10.2191 10.6377 10.5049C10.3856 10.7908 10.0342 10.97 9.65484 11.0061C9.27545 11.0422 8.89653 10.9326 8.59505 10.6995L8.45405 10.575L7.39355 9.5145C7.11234 9.23321 6.95437 8.85175 6.95437 8.454C6.95437 8.05625 7.11234 7.67479 7.39355 7.3935ZM28.6065 7.3935C28.8878 7.67479 29.0457 8.05625 29.0457 8.454C29.0457 8.85175 28.8878 9.23321 28.6065 9.5145L27.546 10.575C27.4077 10.7183 27.2422 10.8325 27.0592 10.9112C26.8761 10.9898 26.6793 11.0311 26.4801 11.0329C26.281 11.0346 26.0835 10.9967 25.8991 10.9212C25.7148 10.8458 25.5473 10.7344 25.4065 10.5936C25.2656 10.4528 25.1542 10.2853 25.0788 10.1009C25.0034 9.91659 24.9654 9.71907 24.9672 9.5199C24.9689 9.32073 25.0103 9.1239 25.0889 8.94089C25.1675 8.75789 25.2818 8.59237 25.425 8.454L26.4855 7.3935C26.7668 7.11229 27.1483 6.95432 27.546 6.95432C27.9438 6.95432 28.3253 7.11229 28.6065 7.3935ZM18 3C18.3979 3 18.7794 3.15804 19.0607 3.43934C19.342 3.72064 19.5 4.10218 19.5 4.5V6C19.5 6.39782 19.342 6.77936 19.0607 7.06066C18.7794 7.34196 18.3979 7.5 18 7.5C17.6022 7.5 17.2207 7.34196 16.9394 7.06066C16.6581 6.77936 16.5 6.39782 16.5 6V4.5C16.5 4.10218 16.6581 3.72064 16.9394 3.43934C17.2207 3.15804 17.6022 3 18 3Z" fill="white"/>
</g>
<defs>
<clipPath id="clip0_12_212">
<rect width="36" height="36" fill="white"/>
</clipPath>
</defs>
</svg>
